<svg xmlns="http://www.w3.org/2000/svg" xmlns:xlink="http://www.w3.org/1999/xlink" width="256" zoomAndPan="magnify" viewBox="0 0 192 191.999996" height="256" preserveAspectRatio="xMidYMid meet" version="1.0"><defs><clipPath id="56d74b68fc"><path d="M 96 0 C 42.980469 0 0 42.980469 0 96 C 0 149.019531 42.980469 192 96 192 C 149.019531 192 192 149.019531 192 96 C 192 42.980469 149.019531 0 96 0 Z M 96 0 " clip-rule="nonzero"/></clipPath></defs><g clip-path="url(#56d74b68fc)"><rect x="-19.2" width="230.4" fill="#ffffff" y="-19.2" height="230.399995" fill-opacity="1"/></g><path fill="#0b549f" d="M 89.207031 167.472656 C 82.257812 166.683594 77.136719 165.492188 71.035156 163.253906 C 68.144531 162.210938 63.363281 159.949219 60.40625 158.226562 C 58.707031 157.222656 54.605469 154.519531 53.5 153.664062 C 47.335938 148.828125 43.894531 145.421875 39.300781 139.625 C 36.199219 135.726562 32.035156 128.484375 30.035156 123.5625 C 29.398438 121.964844 29.355469 121.730469 29.652344 121.621094 C 30.164062 121.453125 37.15625 121.367188 38.027344 121.535156 C 38.6875 121.664062 38.835938 121.855469 40.195312 124.582031 C 43.128906 130.398438 47.675781 136.621094 52.332031 141.117188 C 57.007812 145.65625 63.46875 150.214844 68.589844 152.578125 C 69.589844 153.046875 70.566406 153.515625 70.757812 153.625 C 71.480469 153.984375 75.285156 155.457031 76.988281 156.007812 C 80.257812 157.074219 84.488281 158.011719 88.359375 158.542969 C 91.480469 158.972656 101.40625 158.90625 104.617188 158.4375 C 109.125 157.757812 113.882812 156.585938 117.902344 155.113281 C 124.597656 152.6875 132.332031 148.0625 137.582031 143.355469 C 138.410156 142.609375 139.367188 141.734375 139.707031 141.4375 C 140.558594 140.667969 142.640625 138.433594 144.042969 136.769531 C 147.488281 132.660156 149.59375 129.484375 152.058594 124.710938 C 153.3125 122.261719 153.757812 121.621094 154.160156 121.515625 C 154.800781 121.34375 162.683594 121.515625 162.855469 121.6875 C 163.109375 121.941406 160.878906 127.011719 158.964844 130.484375 C 157.5625 133.0625 154.289062 138.070312 152.757812 139.964844 C 152.140625 140.734375 151.3125 141.777344 150.886719 142.308594 C 148.890625 144.800781 144.449219 149.085938 140.027344 152.769531 C 136.902344 155.390625 130.25 159.355469 125.191406 161.65625 C 114.523438 166.492188 100.558594 168.75 89.207031 167.472656 Z M 89.207031 167.472656 " fill-opacity="1" fill-rule="nonzero"/><path fill="#0b549f" d="M 112.398438 117.148438 C 110.78125 116.828125 109.484375 116.316406 108.484375 115.613281 L 107.527344 114.933594 L 108.484375 113.804688 C 109.015625 113.164062 109.527344 112.738281 109.589844 112.84375 C 109.953125 113.355469 112.332031 114.273438 113.460938 114.355469 C 115.519531 114.507812 116.414062 114.058594 116.414062 112.90625 C 116.414062 111.863281 115.988281 111.628906 112.054688 110.457031 C 110.589844 110.03125 109.953125 109.710938 109.378906 109.136719 C 107.378906 107.21875 107.890625 103.8125 110.378906 102.339844 C 111.800781 101.488281 114.289062 101.382812 116.328125 102.042969 C 117.6875 102.46875 119.175781 103.214844 119.175781 103.46875 C 119.175781 103.511719 118.816406 104.066406 118.367188 104.683594 L 117.5625 105.8125 L 116.328125 105.195312 C 115.648438 104.855469 114.585938 104.515625 113.96875 104.449219 C 112.121094 104.257812 110.910156 105.238281 111.523438 106.410156 C 111.863281 107.050781 112.246094 107.21875 115.054688 108.113281 C 118.113281 109.074219 119.050781 109.753906 119.496094 111.289062 C 119.773438 112.207031 119.792969 112.632812 119.601562 113.460938 C 119.113281 115.636719 117.921875 116.699219 115.457031 117.148438 C 114.054688 117.402344 113.714844 117.402344 112.398438 117.148438 Z M 112.398438 117.148438 " fill-opacity="1" fill-rule="nonzero"/><path fill="#0b549f" d="M 128.507812 117.167969 C 125.253906 116.617188 122.703125 113.632812 122.429688 110.097656 C 122.109375 105.769531 124.914062 102.210938 129.167969 101.617188 C 131.609375 101.273438 134.714844 102.085938 135.945312 103.40625 L 136.433594 103.917969 L 135.371094 105.023438 L 134.332031 106.113281 L 133.394531 105.492188 C 131.71875 104.363281 129.824219 104.152344 128.292969 104.941406 C 126.871094 105.664062 125.765625 107.6875 125.765625 109.5625 C 125.765625 111.628906 127.359375 113.78125 129.167969 114.164062 C 130.738281 114.507812 132.25 114.230469 133.480469 113.398438 L 134.566406 112.675781 L 135.5625 113.71875 L 136.542969 114.761719 L 135.882812 115.335938 C 134.011719 117 131.355469 117.660156 128.507812 117.167969 Z M 128.507812 117.167969 " fill-opacity="1" fill-rule="nonzero"/><path fill="#0b549f" d="M 144.46875 117.085938 C 141.875 116.464844 140.199219 115.1875 139.113281 112.949219 C 138.476562 111.652344 138.410156 111.332031 138.410156 109.5 C 138.410156 107.753906 138.496094 107.304688 138.984375 106.261719 C 140.539062 102.914062 144.152344 101.0625 147.976562 101.660156 C 150.570312 102.042969 152.929688 103.769531 153.992188 106.046875 C 154.5 107.113281 154.566406 107.539062 154.566406 109.394531 C 154.566406 111.289062 154.5 111.671875 153.96875 112.78125 C 152.886719 115.082031 150.761719 116.679688 148.1875 117.148438 C 146.660156 117.445312 145.957031 117.425781 144.46875 117.085938 Z M 148.761719 113.84375 C 151.078125 112.652344 151.972656 109.433594 150.675781 107.050781 C 149.550781 104.960938 147.273438 104.023438 145.128906 104.726562 C 143.195312 105.367188 142.066406 106.707031 141.792969 108.730469 C 141.515625 110.628906 142.597656 112.972656 144.109375 113.804688 C 145.214844 114.421875 147.617188 114.421875 148.761719 113.84375 Z M 148.761719 113.84375 " fill-opacity="1" fill-rule="nonzero"/><path fill="#0b549f" d="M 9.886719 109.882812 C 8.292969 105.855469 6.910156 102.40625 6.824219 102.191406 C 6.699219 101.851562 6.824219 101.808594 8.460938 101.871094 L 10.226562 101.9375 L 12.140625 107.007812 C 13.5625 110.800781 14.117188 112.054688 14.347656 112.011719 C 14.539062 111.972656 14.882812 111.351562 15.15625 110.566406 C 15.433594 109.796875 16.261719 107.558594 17.027344 105.558594 L 18.386719 101.9375 L 20.109375 101.871094 C 21.066406 101.828125 21.832031 101.894531 21.808594 101.976562 C 21.808594 102.0625 20.449219 105.515625 18.792969 109.605469 L 15.773438 117.0625 L 14.285156 117.125 L 12.796875 117.191406 Z M 9.886719 109.882812 " fill-opacity="1" fill-rule="nonzero"/><path fill="#0b549f" d="M 28.570312 117.019531 C 28.484375 116.957031 28.421875 115.570312 28.421875 113.953125 L 28.421875 111.011719 L 26.675781 108.285156 C 25.71875 106.792969 24.425781 104.769531 23.808594 103.832031 C 23.191406 102.875 22.679688 102.042969 22.679688 101.957031 C 22.679688 101.894531 23.488281 101.828125 24.464844 101.828125 L 26.253906 101.828125 L 26.996094 102.957031 C 27.398438 103.554688 28.144531 104.8125 28.652344 105.707031 C 29.867188 107.859375 30.207031 107.878906 31.332031 106.003906 C 31.777344 105.238281 32.523438 104.003906 32.988281 103.234375 L 33.820312 101.828125 L 37.558594 101.828125 L 36.453125 103.492188 C 35.859375 104.386719 35.199219 105.429688 34.988281 105.769531 C 34.773438 106.132812 33.925781 107.476562 33.097656 108.753906 L 31.609375 111.097656 L 31.609375 117.167969 L 30.164062 117.167969 C 29.355469 117.167969 28.632812 117.105469 28.570312 117.019531 Z M 28.570312 117.019531 " fill-opacity="1" fill-rule="nonzero"/><path fill="#0b549f" d="M 36.558594 116.742188 C 36.601562 116.53125 38.070312 113.035156 39.8125 108.988281 L 42.957031 101.617188 L 45.996094 101.617188 L 49.226562 109.136719 C 50.992188 113.25 52.4375 116.765625 52.4375 116.914062 C 52.4375 117.085938 51.96875 117.167969 50.863281 117.167969 L 49.269531 117.167969 L 48.589844 115.484375 C 47.804688 113.527344 47.996094 113.609375 44.445312 113.570312 C 41.066406 113.503906 41.109375 113.484375 40.300781 115.484375 L 39.601562 117.148438 L 38.027344 117.148438 C 36.601562 117.148438 36.476562 117.105469 36.558594 116.742188 Z M 46.378906 110.566406 C 46.445312 110.457031 46.105469 109.394531 45.613281 108.222656 C 45 106.707031 44.636719 106.089844 44.402344 106.132812 C 44.105469 106.195312 42.46875 109.882812 42.449219 110.523438 C 42.449219 110.839844 46.167969 110.882812 46.378906 110.566406 Z M 46.378906 110.566406 " fill-opacity="1" fill-rule="nonzero"/><path fill="#0b549f" d="M 55.476562 117.019531 C 55.265625 116.933594 55.199219 115.210938 55.199219 109.371094 L 55.199219 101.828125 L 59.003906 101.828125 C 63.320312 101.828125 64.425781 102.0625 65.808594 103.257812 C 67.804688 104.960938 67.953125 108.519531 66.125 110.566406 C 65 111.820312 63.574219 112.3125 60.898438 112.441406 L 58.601562 112.546875 L 58.601562 114.71875 C 58.601562 116.53125 58.539062 116.933594 58.261719 117.042969 C 57.878906 117.191406 55.859375 117.191406 55.476562 117.019531 Z M 62.832031 109.160156 C 64.425781 108.371094 64.574219 106.046875 63.066406 105.175781 C 62.617188 104.898438 61.960938 104.8125 60.535156 104.8125 L 58.601562 104.8125 L 58.601562 109.5 L 60.367188 109.5 C 61.578125 109.5 62.363281 109.394531 62.832031 109.160156 Z M 62.832031 109.160156 " fill-opacity="1" fill-rule="nonzero"/><path fill="#0b549f" d="M 67.316406 116.890625 C 67.316406 116.785156 68.761719 113.3125 70.546875 109.160156 L 73.757812 101.617188 L 76.796875 101.617188 L 77.835938 104.023438 C 78.390625 105.324219 79.046875 106.835938 79.261719 107.347656 C 81.492188 112.398438 83.234375 116.679688 83.148438 116.890625 C 83.042969 117.191406 81.023438 117.277344 80.386719 117.042969 C 80.046875 116.890625 79.003906 114.824219 79.003906 114.273438 C 79.003906 114.121094 78.898438 113.929688 78.773438 113.84375 C 78.472656 113.675781 72.90625 113.484375 72.289062 113.652344 C 71.949219 113.71875 71.628906 114.230469 71.121094 115.464844 L 70.398438 117.191406 L 68.867188 117.125 C 68.015625 117.105469 67.316406 117 67.316406 116.890625 Z M 77.21875 110.480469 C 77.285156 110.332031 76.964844 109.308594 76.519531 108.199219 C 75.390625 105.453125 75.117188 105.429688 74.054688 108.050781 C 72.925781 110.863281 72.882812 110.777344 75.179688 110.777344 C 76.605469 110.777344 77.136719 110.691406 77.21875 110.480469 Z M 77.21875 110.480469 " fill-opacity="1" fill-rule="nonzero"/><path fill="#0b549f" d="M 86.082031 117.042969 C 85.871094 116.957031 85.808594 115.210938 85.808594 109.371094 L 85.808594 101.828125 L 90.058594 101.828125 C 93.375 101.828125 94.523438 101.894531 95.308594 102.171875 C 97.601562 102.9375 98.644531 104.386719 98.644531 106.835938 C 98.644531 107.945312 98.515625 108.5625 98.175781 109.199219 C 97.710938 110.136719 96.730469 111.074219 96.007812 111.308594 C 95.777344 111.375 95.585938 111.566406 95.585938 111.695312 C 95.585938 111.84375 96.347656 113.058594 97.261719 114.398438 C 98.199219 115.742188 98.921875 116.890625 98.878906 116.976562 C 98.816406 117.042969 98.027344 117.125 97.09375 117.148438 L 95.414062 117.191406 L 93.648438 114.613281 L 91.90625 112.035156 L 90.609375 112.097656 L 89.3125 112.164062 L 89.101562 117.0625 L 87.71875 117.105469 C 86.953125 117.125 86.210938 117.085938 86.082031 117.042969 Z M 94.648438 108.5625 C 95.859375 107.347656 95.585938 105.6875 94.054688 104.960938 C 93.457031 104.683594 91.015625 104.597656 89.484375 104.769531 C 89.273438 104.8125 89.207031 105.410156 89.207031 107.050781 L 89.207031 109.285156 L 93.925781 109.285156 Z M 94.648438 108.5625 " fill-opacity="1" fill-rule="nonzero"/><path fill="#0b549f" d="M 158.007812 117.042969 C 157.921875 116.957031 157.859375 113.503906 157.859375 109.351562 L 157.859375 101.828125 L 162.066406 101.828125 C 167.148438 101.828125 168.0625 102.019531 169.445312 103.40625 C 171.570312 105.535156 171.101562 109.328125 168.53125 111.054688 C 168.019531 111.394531 167.660156 111.777344 167.699219 111.929688 C 167.765625 112.054688 168.488281 113.164062 169.335938 114.398438 C 170.1875 115.636719 170.910156 116.742188 170.972656 116.871094 C 171.039062 117.042969 170.484375 117.125 169.253906 117.148438 L 167.46875 117.191406 L 165.722656 114.613281 L 163.960938 112.054688 L 161.28125 112.054688 L 161.21875 114.570312 L 161.15625 117.0625 L 159.667969 117.125 C 158.835938 117.148438 158.09375 117.125 158.007812 117.042969 Z M 166.808594 108.476562 C 167.914062 107.242188 167.53125 105.535156 166.023438 104.898438 C 165.300781 104.597656 162.621094 104.492188 161.75 104.726562 C 161.28125 104.855469 161.261719 104.960938 161.261719 106.921875 C 161.261719 108.070312 161.324219 109.074219 161.410156 109.160156 C 161.515625 109.242188 162.621094 109.285156 163.875 109.242188 C 166.171875 109.179688 166.191406 109.179688 166.808594 108.476562 Z M 166.808594 108.476562 " fill-opacity="1" fill-rule="nonzero"/><path fill="#0b549f" d="M 174.140625 117 C 174.078125 116.890625 174.054688 113.460938 174.078125 109.371094 L 174.121094 101.9375 L 179.921875 101.871094 L 185.722656 101.828125 L 185.660156 103.148438 L 185.597656 104.492188 L 181.453125 104.597656 L 177.308594 104.707031 L 177.308594 107.902344 L 180.984375 107.964844 L 184.640625 108.007812 L 184.640625 110.777344 L 177.203125 110.777344 L 177.203125 114.1875 L 185.703125 114.1875 L 185.703125 117.167969 L 179.984375 117.167969 C 176.820312 117.167969 174.203125 117.085938 174.140625 117 Z M 174.140625 117 " fill-opacity="1" fill-rule="nonzero"/><path fill="#0b549f" d="M 93.925781 95.480469 C 92.757812 94.988281 91.480469 93.796875 90.867188 92.625 C 90.164062 91.28125 90.1875 88.875 90.910156 87.511719 C 91.207031 86.980469 93.011719 84.636719 94.945312 82.3125 C 99.15625 77.265625 101.597656 74.300781 102.597656 73.066406 C 103.257812 72.234375 104.828125 70.339844 111.589844 62.160156 C 112.628906 60.878906 113.5 59.855469 113.542969 59.855469 C 113.652344 59.855469 113.714844 59.644531 107.71875 75.730469 C 105 82.996094 102.554688 89.621094 102.257812 90.429688 C 101.175781 93.433594 100.644531 94.222656 99.046875 95.160156 C 97.773438 95.90625 95.308594 96.054688 93.925781 95.480469 Z M 97.816406 92.539062 C 99.089844 91.710938 99.515625 90.089844 98.835938 88.683594 C 98.347656 87.640625 97.433594 87.128906 96.03125 87.128906 C 94.988281 87.128906 94.820312 87.191406 94.074219 87.960938 C 93.308594 88.703125 93.246094 88.875 93.246094 89.917969 C 93.246094 91.132812 93.777344 92.199219 94.605469 92.605469 C 95.328125 92.964844 97.242188 92.921875 97.816406 92.539062 Z M 97.816406 92.539062 " fill-opacity="1" fill-rule="nonzero"/><path fill="#f49306" d="M 158.964844 95.714844 C 158.835938 95.375 158.6875 93.777344 158.625 92.136719 C 158.476562 88.023438 157.710938 83.082031 156.691406 79.671875 C 156.5 79.03125 156.203125 77.96875 156.03125 77.328125 C 155.648438 75.984375 155.308594 74.941406 154.671875 73.28125 C 154.417969 72.640625 154.121094 71.832031 153.96875 71.46875 C 153.84375 71.128906 153.609375 70.703125 153.460938 70.550781 C 153.3125 70.402344 153.183594 70.082031 153.183594 69.847656 C 153.183594 69.636719 153.097656 69.445312 152.972656 69.445312 C 152.863281 69.445312 152.757812 69.296875 152.757812 69.125 C 152.757812 68.679688 151.609375 66.417969 150.613281 64.929688 C 150.1875 64.265625 149.761719 63.5 149.675781 63.246094 C 149.59375 62.988281 149.441406 62.667969 149.335938 62.542969 C 148.464844 61.496094 148.296875 61.242188 148.1875 60.902344 C 148.105469 60.667969 147.976562 60.496094 147.871094 60.496094 C 147.765625 60.496094 147.636719 60.324219 147.574219 60.132812 C 147.507812 59.921875 147.210938 59.496094 146.933594 59.195312 C 146.660156 58.898438 146.253906 58.324219 146.0625 57.941406 C 145.871094 57.554688 145.46875 57.003906 145.191406 56.726562 C 144.914062 56.449219 144.683594 56.128906 144.683594 56.023438 C 144.683594 55.894531 144.554688 55.808594 144.382812 55.808594 C 144.234375 55.808594 143.980469 55.53125 143.832031 55.171875 C 143.683594 54.828125 143.429688 54.53125 143.28125 54.53125 C 143.109375 54.53125 142.980469 54.445312 142.980469 54.359375 C 142.980469 54.0625 142.214844 53.253906 141.941406 53.253906 C 141.8125 53.253906 141.707031 53.167969 141.707031 53.082031 C 141.707031 52.804688 140.070312 51.121094 139.792969 51.121094 C 139.6875 51.121094 139.582031 51.035156 139.582031 50.953125 C 139.582031 50.675781 138.816406 49.84375 138.5625 49.84375 C 138.433594 49.84375 138.261719 49.652344 138.199219 49.417969 C 138.136719 49.183594 137.945312 48.992188 137.816406 48.992188 C 137.667969 48.992188 137.414062 48.800781 137.242188 48.566406 C 137.074219 48.332031 136.859375 48.140625 136.777344 48.140625 C 136.691406 48.140625 136.203125 47.753906 135.734375 47.285156 C 135.246094 46.816406 134.777344 46.433594 134.671875 46.433594 C 134.566406 46.433594 134.203125 46.15625 133.886719 45.796875 C 133.542969 45.453125 133.164062 45.15625 133.011719 45.15625 C 132.886719 45.15625 132.78125 45.070312 132.78125 44.941406 C 132.78125 44.835938 132.628906 44.730469 132.460938 44.730469 C 132.289062 44.730469 132.140625 44.644531 132.140625 44.515625 C 132.140625 44.410156 131.992188 44.304688 131.824219 44.304688 C 131.652344 44.304688 131.503906 44.21875 131.503906 44.089844 C 131.503906 43.984375 131.355469 43.878906 131.183594 43.878906 C 131.015625 43.878906 130.867188 43.792969 130.867188 43.664062 C 130.867188 43.558594 130.71875 43.453125 130.546875 43.453125 C 130.378906 43.453125 130.230469 43.367188 130.230469 43.238281 C 130.230469 43.132812 130.082031 43.027344 129.890625 43.027344 C 129.699219 43.027344 129.378906 42.855469 129.1875 42.664062 C 128.996094 42.449219 128.421875 42.046875 127.890625 41.769531 C 124.660156 40.042969 123.789062 39.617188 123.46875 39.617188 C 123.257812 39.617188 122.980469 39.425781 122.832031 39.191406 C 122.683594 38.957031 122.386719 38.765625 122.171875 38.765625 C 121.941406 38.765625 121.683594 38.679688 121.621094 38.550781 C 121.558594 38.445312 121.300781 38.339844 121.070312 38.339844 C 120.855469 38.339844 120.664062 38.253906 120.664062 38.125 C 120.664062 38.019531 120.472656 37.914062 120.238281 37.914062 C 120.003906 37.914062 119.496094 37.722656 119.070312 37.488281 C 118.644531 37.253906 118.09375 37.058594 117.796875 37.058594 C 117.519531 37.058594 117.222656 36.976562 117.15625 36.847656 C 117.09375 36.742188 116.796875 36.632812 116.5 36.632812 C 116.222656 36.632812 115.988281 36.550781 115.988281 36.421875 C 115.988281 36.316406 115.710938 36.207031 115.371094 36.207031 C 115.011719 36.207031 114.671875 36.101562 114.605469 35.996094 C 114.542969 35.867188 114.246094 35.78125 113.949219 35.78125 C 113.671875 35.78125 113.4375 35.695312 113.4375 35.570312 C 113.4375 35.460938 113.054688 35.355469 112.585938 35.355469 C 112.121094 35.355469 111.738281 35.269531 111.738281 35.144531 C 111.738281 35.035156 111.3125 34.929688 110.78125 34.929688 C 110.25 34.929688 109.824219 34.84375 109.824219 34.714844 C 109.824219 34.609375 109.398438 34.503906 108.890625 34.503906 C 108.359375 34.503906 107.871094 34.417969 107.804688 34.289062 C 107.742188 34.183594 107.167969 34.078125 106.550781 34.078125 C 105.957031 34.078125 105.363281 33.992188 105.253906 33.886719 C 105.128906 33.777344 104.234375 33.628906 103.234375 33.566406 C 102.238281 33.480469 100.429688 33.351562 99.199219 33.269531 L 96.964844 33.117188 L 96.902344 28.6875 L 96.859375 24.234375 L 100.089844 24.363281 C 105.210938 24.574219 107.0625 24.722656 107.0625 24.9375 C 107.0625 25.042969 107.59375 25.128906 108.230469 25.128906 C 108.867188 25.128906 109.398438 25.234375 109.398438 25.34375 C 109.398438 25.46875 109.824219 25.554688 110.335938 25.554688 C 110.867188 25.554688 111.355469 25.660156 111.417969 25.769531 C 111.484375 25.894531 111.863281 25.980469 112.269531 25.980469 C 112.671875 25.980469 113.054688 26.089844 113.121094 26.195312 C 113.183594 26.320312 113.628906 26.40625 114.097656 26.40625 C 114.542969 26.40625 114.925781 26.515625 114.925781 26.621094 C 114.925781 26.75 115.265625 26.832031 115.667969 26.832031 C 116.074219 26.832031 116.414062 26.941406 116.414062 27.046875 C 116.414062 27.175781 116.753906 27.257812 117.15625 27.257812 C 117.5625 27.257812 117.902344 27.367188 117.902344 27.472656 C 117.902344 27.601562 118.136719 27.6875 118.433594 27.6875 C 118.730469 27.6875 118.964844 27.792969 118.964844 27.898438 C 118.964844 28.027344 119.242188 28.113281 119.558594 28.113281 C 120.195312 28.113281 121.300781 28.539062 121.300781 28.816406 C 121.300781 28.898438 121.535156 28.964844 121.832031 28.964844 C 122.132812 28.964844 122.363281 29.070312 122.363281 29.175781 C 122.363281 29.304688 122.578125 29.390625 122.855469 29.390625 C 123.40625 29.390625 124.492188 29.835938 124.492188 30.09375 C 124.492188 30.179688 124.722656 30.242188 125.023438 30.242188 C 125.320312 30.242188 125.554688 30.347656 125.554688 30.457031 C 125.554688 30.582031 125.746094 30.667969 125.976562 30.667969 C 126.210938 30.667969 126.402344 30.773438 126.402344 30.882812 C 126.402344 31.007812 126.636719 31.09375 126.933594 31.09375 C 127.230469 31.09375 127.464844 31.203125 127.464844 31.308594 C 127.464844 31.4375 127.65625 31.519531 127.890625 31.519531 C 128.125 31.519531 128.316406 31.628906 128.316406 31.734375 C 128.316406 31.863281 128.464844 31.945312 128.636719 31.945312 C 128.804688 31.945312 128.953125 32.054688 128.953125 32.160156 C 128.953125 32.289062 129.144531 32.375 129.378906 32.375 C 129.613281 32.375 129.804688 32.480469 129.804688 32.585938 C 129.804688 32.714844 129.972656 32.800781 130.1875 32.800781 C 130.398438 32.800781 130.78125 32.992188 131.035156 33.226562 C 131.292969 33.460938 131.632812 33.652344 131.824219 33.652344 C 131.992188 33.652344 132.140625 33.757812 132.140625 33.863281 C 132.140625 33.992188 132.269531 34.078125 132.441406 34.078125 C 132.609375 34.078125 132.78125 34.140625 132.820312 34.246094 C 132.863281 34.332031 133.332031 34.632812 133.90625 34.910156 C 134.457031 35.183594 134.90625 35.503906 134.90625 35.613281 C 134.90625 35.695312 135.054688 35.78125 135.222656 35.78125 C 135.394531 35.78125 135.542969 35.886719 135.542969 35.996094 C 135.542969 36.121094 135.691406 36.207031 135.863281 36.207031 C 136.03125 36.207031 136.179688 36.316406 136.179688 36.421875 C 136.179688 36.550781 136.328125 36.632812 136.5 36.632812 C 136.667969 36.632812 136.816406 36.742188 136.816406 36.847656 C 136.816406 36.976562 136.945312 37.058594 137.09375 37.058594 C 137.222656 37.058594 137.6875 37.359375 138.09375 37.699219 C 138.496094 38.039062 138.902344 38.339844 138.984375 38.339844 C 139.070312 38.339844 139.433594 38.636719 139.75 38.976562 C 140.089844 39.339844 140.453125 39.617188 140.558594 39.617188 C 140.664062 39.617188 140.898438 39.808594 141.070312 40.042969 C 141.238281 40.277344 141.472656 40.46875 141.578125 40.46875 C 141.683594 40.46875 142.046875 40.765625 142.386719 41.109375 C 142.707031 41.46875 143.023438 41.746094 143.089844 41.746094 C 143.128906 41.746094 143.746094 42.324219 144.449219 43.027344 C 145.148438 43.730469 145.828125 44.304688 145.9375 44.304688 C 146.042969 44.304688 146.210938 44.496094 146.277344 44.730469 C 146.339844 44.964844 146.53125 45.15625 146.660156 45.15625 C 146.808594 45.175781 147.253906 45.5625 147.65625 46.03125 C 148.0625 46.5 148.804688 47.308594 149.316406 47.820312 C 149.804688 48.351562 150.207031 48.820312 150.207031 48.90625 C 150.207031 48.96875 150.464844 49.289062 150.804688 49.628906 C 151.121094 49.949219 151.589844 50.484375 151.867188 50.824219 C 153.054688 52.359375 153.585938 53.019531 154.460938 54.082031 C 154.691406 54.359375 154.925781 54.765625 154.992188 54.976562 C 155.074219 55.210938 155.203125 55.382812 155.289062 55.382812 C 155.375 55.382812 155.628906 55.765625 155.839844 56.234375 C 156.054688 56.703125 156.289062 57.085938 156.351562 57.085938 C 156.4375 57.085938 156.667969 57.449219 156.902344 57.898438 C 157.136719 58.324219 157.390625 58.726562 157.457031 58.792969 C 157.519531 58.855469 157.816406 59.324219 158.074219 59.855469 C 158.328125 60.390625 158.625 60.859375 158.710938 60.921875 C 158.921875 61.070312 161.578125 66.355469 161.960938 67.421875 C 162.132812 67.890625 162.492188 68.804688 162.726562 69.445312 C 163.597656 71.660156 163.832031 72.320312 164.660156 74.8125 C 166.339844 79.882812 167.46875 86.425781 167.785156 92.753906 C 167.914062 95.480469 167.890625 95.734375 167.53125 95.992188 C 167.234375 96.226562 166.171875 96.289062 163.152344 96.289062 L 159.175781 96.289062 Z M 158.964844 95.714844 " fill-opacity="1" fill-rule="nonzero"/><path fill="#b2d729" d="M 161.113281 96.140625 C 162.238281 96.097656 164.109375 96.097656 165.257812 96.140625 C 166.382812 96.160156 165.449219 96.203125 163.171875 96.203125 C 160.898438 96.203125 159.964844 96.160156 161.113281 96.140625 Z M 161.113281 96.140625 " fill-opacity="1" fill-rule="nonzero"/><path fill="#b2d729" d="M 50.695312 50.25 C 50.25 49.757812 49.886719 49.289062 49.886719 49.183594 C 49.886719 49.078125 49.78125 48.992188 49.652344 48.992188 C 49.375 48.992188 48.613281 48.183594 48.613281 47.882812 C 48.613281 47.796875 48.503906 47.714844 48.378906 47.714844 C 48.101562 47.714844 46.488281 46.050781 46.488281 45.773438 C 46.488281 45.667969 46.335938 45.582031 46.167969 45.582031 C 45.679688 45.582031 45.785156 44.859375 46.378906 44.347656 C 46.675781 44.089844 46.910156 43.792969 46.910156 43.664062 C 46.910156 43.558594 47.058594 43.453125 47.230469 43.453125 C 47.398438 43.453125 47.65625 43.261719 47.804688 43.027344 C 47.953125 42.792969 48.164062 42.601562 48.25 42.601562 C 48.355469 42.601562 48.71875 42.324219 49.035156 41.960938 C 49.355469 41.621094 49.695312 41.320312 49.757812 41.320312 C 49.867188 41.320312 50.671875 40.640625 51.695312 39.679688 C 51.96875 39.402344 52.308594 39.191406 52.4375 39.191406 C 52.542969 39.191406 52.648438 39.105469 52.648438 38.976562 C 52.648438 38.871094 52.777344 38.765625 52.925781 38.765625 C 53.074219 38.765625 53.332031 38.574219 53.5 38.339844 C 53.671875 38.105469 53.882812 37.914062 53.988281 37.914062 C 54.09375 37.914062 54.285156 37.785156 54.457031 37.65625 C 55.09375 37.039062 55.648438 36.632812 55.839844 36.632812 C 55.964844 36.632812 56.050781 36.550781 56.050781 36.464844 C 56.050781 36.355469 56.390625 36.164062 56.792969 35.996094 C 57.199219 35.824219 57.539062 35.632812 57.539062 35.527344 C 57.539062 35.441406 57.6875 35.355469 57.859375 35.355469 C 58.027344 35.355469 58.175781 35.269531 58.175781 35.144531 C 58.175781 35.035156 58.324219 34.929688 58.496094 34.929688 C 58.664062 34.929688 58.8125 34.84375 58.8125 34.714844 C 58.8125 34.609375 58.960938 34.503906 59.132812 34.503906 C 59.304688 34.503906 59.453125 34.417969 59.453125 34.289062 C 59.453125 34.183594 59.644531 34.078125 59.875 34.078125 C 60.109375 34.078125 60.300781 33.992188 60.300781 33.90625 C 60.300781 33.800781 60.640625 33.609375 61.046875 33.4375 C 61.449219 33.269531 61.789062 33.074219 61.789062 33.011719 C 61.789062 32.949219 62.128906 32.757812 62.535156 32.585938 C 62.9375 32.414062 63.277344 32.222656 63.277344 32.117188 C 63.277344 32.03125 63.449219 31.945312 63.660156 31.945312 C 63.851562 31.945312 64.253906 31.753906 64.550781 31.519531 C 64.851562 31.285156 65.253906 31.09375 65.464844 31.09375 C 65.65625 31.09375 65.828125 31.007812 65.828125 30.882812 C 65.828125 30.773438 66.019531 30.667969 66.230469 30.667969 C 66.464844 30.667969 66.71875 30.582031 66.785156 30.457031 C 66.847656 30.347656 67.101562 30.242188 67.335938 30.242188 C 67.550781 30.242188 67.742188 30.15625 67.742188 30.03125 C 67.742188 29.921875 67.976562 29.816406 68.273438 29.816406 C 68.570312 29.816406 68.804688 29.730469 68.804688 29.601562 C 68.804688 29.496094 68.953125 29.390625 69.121094 29.390625 C 69.292969 29.390625 69.632812 29.304688 69.867188 29.175781 C 70.101562 29.070312 70.484375 28.878906 70.714844 28.75 C 70.949219 28.644531 71.332031 28.539062 71.566406 28.539062 C 71.800781 28.539062 71.992188 28.453125 71.992188 28.324219 C 71.992188 28.21875 72.289062 28.113281 72.628906 28.113281 C 72.992188 28.113281 73.265625 28.027344 73.265625 27.898438 C 73.265625 27.792969 73.566406 27.6875 73.90625 27.6875 C 74.265625 27.6875 74.542969 27.601562 74.542969 27.492188 C 74.542969 27.324219 74.777344 27.257812 76.730469 26.917969 C 77.15625 26.855469 77.519531 26.707031 77.519531 26.597656 C 77.519531 26.492188 77.859375 26.40625 78.261719 26.40625 C 78.664062 26.40625 79.003906 26.320312 79.003906 26.195312 C 79.003906 26.089844 79.386719 25.980469 79.855469 25.980469 C 80.324219 25.980469 80.707031 25.894531 80.707031 25.769531 C 80.707031 25.660156 81.132812 25.554688 81.664062 25.554688 C 82.195312 25.554688 82.617188 25.46875 82.617188 25.34375 C 82.617188 25.214844 83.257812 25.128906 84.105469 25.128906 C 84.9375 25.128906 85.59375 25.042969 85.59375 24.9375 C 85.59375 24.703125 87.464844 24.554688 92.140625 24.363281 L 95.371094 24.234375 L 95.328125 28.6875 L 95.265625 33.117188 L 93.035156 33.269531 C 87.996094 33.628906 87.402344 33.695312 87.210938 33.886719 C 87.082031 33.992188 86.445312 34.078125 85.765625 34.078125 C 85.085938 34.078125 84.53125 34.164062 84.53125 34.289062 C 84.53125 34.417969 84 34.503906 83.363281 34.503906 C 82.726562 34.503906 82.195312 34.609375 82.195312 34.714844 C 82.195312 34.84375 81.875 34.929688 81.472656 34.929688 C 81.066406 34.929688 80.664062 35.035156 80.601562 35.144531 C 80.535156 35.269531 80.089844 35.355469 79.621094 35.355469 C 79.175781 35.355469 78.792969 35.460938 78.792969 35.570312 C 78.792969 35.695312 78.558594 35.78125 78.261719 35.78125 C 77.964844 35.78125 77.730469 35.886719 77.730469 35.996094 C 77.730469 36.121094 77.453125 36.207031 77.09375 36.207031 C 76.753906 36.207031 76.457031 36.316406 76.457031 36.421875 C 76.457031 36.550781 76.179688 36.632812 75.839844 36.632812 C 75.476562 36.632812 75.136719 36.742188 75.074219 36.847656 C 75.011719 36.976562 74.710938 37.058594 74.414062 37.058594 C 74.136719 37.058594 73.90625 37.167969 73.90625 37.273438 C 73.90625 37.402344 73.628906 37.488281 73.265625 37.488281 C 72.925781 37.488281 72.628906 37.59375 72.628906 37.699219 C 72.628906 37.828125 72.4375 37.914062 72.203125 37.914062 C 71.96875 37.914062 71.777344 38.019531 71.777344 38.125 C 71.777344 38.253906 71.546875 38.339844 71.246094 38.339844 C 70.949219 38.339844 70.714844 38.445312 70.714844 38.550781 C 70.714844 38.679688 70.523438 38.765625 70.292969 38.765625 C 70.058594 38.765625 69.867188 38.871094 69.867188 38.976562 C 69.867188 39.105469 69.71875 39.191406 69.546875 39.191406 C 69.378906 39.191406 69.230469 39.296875 69.230469 39.402344 C 69.230469 39.53125 68.953125 39.617188 68.589844 39.617188 C 68.25 39.617188 67.953125 39.722656 67.953125 39.828125 C 67.953125 39.957031 67.804688 40.042969 67.632812 40.042969 C 67.464844 40.042969 67.316406 40.148438 67.316406 40.257812 C 67.316406 40.382812 67.082031 40.46875 66.785156 40.46875 C 66.488281 40.46875 66.253906 40.574219 66.253906 40.683594 C 66.253906 40.808594 66.105469 40.894531 65.933594 40.894531 C 65.765625 40.894531 65.617188 41 65.617188 41.109375 C 65.617188 41.234375 65.425781 41.320312 65.191406 41.320312 C 64.957031 41.320312 64.765625 41.429688 64.765625 41.535156 C 64.765625 41.664062 64.617188 41.746094 64.445312 41.746094 C 64.277344 41.746094 64.128906 41.855469 64.128906 41.960938 C 64.128906 42.089844 63.9375 42.171875 63.722656 42.171875 C 63.488281 42.171875 63.234375 42.367188 63.171875 42.601562 C 63.085938 42.875 62.851562 43.027344 62.511719 43.027344 C 62.234375 43.027344 62.003906 43.132812 62.003906 43.238281 C 62.003906 43.367188 61.851562 43.453125 61.683594 43.453125 C 61.511719 43.453125 61.363281 43.558594 61.363281 43.664062 C 61.363281 43.792969 61.238281 43.878906 61.089844 43.878906 C 60.9375 43.878906 60.683594 44.070312 60.515625 44.304688 C 60.34375 44.539062 60.046875 44.730469 59.835938 44.730469 C 59.644531 44.730469 59.410156 44.921875 59.34375 45.15625 C 59.28125 45.390625 59.046875 45.582031 58.855469 45.582031 C 58.644531 45.582031 58.347656 45.773438 58.175781 46.007812 C 58.007812 46.242188 57.75 46.433594 57.601562 46.433594 C 57.453125 46.433594 57.324219 46.542969 57.324219 46.648438 C 57.324219 46.777344 57.21875 46.859375 57.09375 46.859375 C 56.964844 46.859375 56.582031 47.160156 56.261719 47.5 C 55.945312 47.863281 55.605469 48.140625 55.519531 48.140625 C 55.433594 48.140625 54.902344 48.628906 54.328125 49.203125 C 53.753906 49.800781 53.222656 50.269531 53.140625 50.269531 C 53.03125 50.269531 52.820312 50.460938 52.648438 50.695312 C 52.183594 51.335938 51.566406 51.1875 50.695312 50.25 Z M 50.695312 50.25 " fill-opacity="1" fill-rule="nonzero"/><path fill="#de2d1d" d="M 28.761719 95.90625 L 24.53125 95.863281 L 24.679688 92.496094 C 24.996094 85.339844 26.953125 75.859375 29.164062 70.722656 C 29.441406 70.082031 29.800781 69.148438 29.949219 68.65625 C 30.097656 68.144531 30.289062 67.742188 30.355469 67.742188 C 30.4375 67.742188 30.566406 67.484375 30.652344 67.164062 C 30.820312 66.484375 33.222656 61.625 33.628906 61.136719 C 33.753906 60.964844 34.160156 60.285156 34.5 59.644531 C 34.816406 59.003906 35.347656 58.132812 35.667969 57.726562 C 35.964844 57.320312 36.390625 56.660156 36.601562 56.257812 C 36.792969 55.851562 37.050781 55.425781 37.15625 55.296875 C 37.410156 55 39.003906 52.890625 39.578125 52.101562 C 39.8125 51.78125 40.195312 51.292969 40.429688 51.035156 C 40.664062 50.761719 41.171875 50.164062 41.535156 49.695312 C 41.917969 49.226562 42.746094 48.265625 43.382812 47.585938 C 44.425781 46.476562 44.574219 46.390625 44.914062 46.667969 C 45.59375 47.222656 50.546875 52.25 50.589844 52.421875 C 50.609375 52.507812 50.078125 53.1875 49.417969 53.933594 C 48.25 55.234375 46.488281 57.40625 45.847656 58.367188 C 45.679688 58.621094 45.230469 59.238281 44.871094 59.730469 C 44.105469 60.753906 42.617188 63.054688 41.535156 64.863281 C 40.492188 66.632812 37.984375 71.957031 37.984375 72.40625 C 37.984375 72.535156 37.898438 72.8125 37.792969 73.023438 C 37.367188 73.8125 36.710938 75.410156 36.710938 75.644531 C 36.710938 75.878906 36.21875 77.5 35.519531 79.566406 C 34.625 82.207031 33.628906 88.8125 33.414062 93.390625 C 33.371094 94.671875 33.246094 95.777344 33.160156 95.84375 C 33.054688 95.90625 31.078125 95.949219 28.761719 95.90625 Z M 28.761719 95.90625 " fill-opacity="1" fill-rule="nonzero"/></svg>