<svg id="visual" viewBox="0 0 960 540" width="960" height="540" xmlns="http://www.w3.org/2000/svg" xmlns:xlink="http://www.w3.org/1999/xlink" version="1.1"><rect x="0" y="0" width="960" height="540" fill="#111827"></rect><defs><linearGradient id="grad1_0" x1="43.8%" y1="0%" x2="100%" y2="100%"><stop offset="14.444444444444446%" stop-color="#111827" stop-opacity="1"></stop><stop offset="85.55555555555554%" stop-color="#111827" stop-opacity="1"></stop></linearGradient></defs><defs><linearGradient id="grad2_0" x1="0%" y1="0%" x2="56.3%" y2="100%"><stop offset="14.444444444444446%" stop-color="#111827" stop-opacity="1"></stop><stop offset="85.55555555555554%" stop-color="#111827" stop-opacity="1"></stop></linearGradient></defs><g transform="translate(960, 0)"><path d="M0 486C-58.5 459.9 -117 433.8 -168 405.6C-219 377.4 -262.5 347.2 -312.5 312.5C-362.5 277.9 -419 238.8 -449 186C-479 133.2 -482.5 66.6 -486 0L0 0Z" fill="#3C72FC"></path></g><g transform="translate(0, 540)"><path d="M0 -486C63.6 -478.3 127.2 -470.6 185.6 -448.1C244 -425.6 297.3 -388.2 342.9 -342.9C388.5 -297.7 426.4 -244.5 449 -186C471.6 -127.5 478.8 -63.8 486 0L0 0Z" fill="#3C72FC"></path></g></svg>