<svg xmlns="http://www.w3.org/2000/svg" xmlns:xlink="http://www.w3.org/1999/xlink" width="56" zoomAndPan="magnify" viewBox="0 0 42 42" height="56" preserveAspectRatio="xMidYMid meet" version="1.0"><defs><clipPath id="79f816f2c9"><path d="M 0.488281 0 L 41.511719 0 L 41.511719 41.023438 L 0.488281 41.023438 Z M 0.488281 0 " clip-rule="nonzero"/></clipPath><clipPath id="b77191afe0"><path d="M 21 0 C 9.671875 0 0.488281 9.183594 0.488281 20.511719 C 0.488281 31.839844 9.671875 41.023438 21 41.023438 C 32.328125 41.023438 41.511719 31.839844 41.511719 20.511719 C 41.511719 9.183594 32.328125 0 21 0 Z M 21 0 " clip-rule="nonzero"/></clipPath><clipPath id="fd045c1f2d"><path d="M 38 21 L 41.511719 21 L 41.511719 26 L 38 26 Z M 38 21 " clip-rule="nonzero"/></clipPath><clipPath id="bf076be87c"><path d="M 21 4.101562 L 38 4.101562 L 38 21 L 21 21 Z M 21 4.101562 " clip-rule="nonzero"/></clipPath><clipPath id="0186fbe694"><path d="M 9 4.101562 L 22 4.101562 L 22 11 L 9 11 Z M 9 4.101562 " clip-rule="nonzero"/></clipPath></defs><g clip-path="url(#79f816f2c9)"><g clip-path="url(#b77191afe0)"><path fill="#ffffff" d="M 0.488281 0 L 41.511719 0 L 41.511719 41.023438 L 0.488281 41.023438 Z M 0.488281 0 " fill-opacity="1" fill-rule="nonzero"/></g></g><path fill="#0b549f" d="M 19.640625 36.410156 C 18.089844 36.234375 16.945312 35.96875 15.582031 35.472656 C 14.9375 35.242188 13.871094 34.742188 13.210938 34.355469 C 12.832031 34.136719 11.914062 33.535156 11.667969 33.34375 C 10.292969 32.273438 9.523438 31.515625 8.5 30.226562 C 7.804688 29.363281 6.875 27.753906 6.429688 26.664062 C 6.289062 26.308594 6.277344 26.253906 6.34375 26.230469 C 6.457031 26.195312 8.019531 26.175781 8.214844 26.214844 C 8.359375 26.242188 8.394531 26.285156 8.699219 26.890625 C 9.351562 28.179688 10.367188 29.5625 11.40625 30.558594 C 12.453125 31.566406 13.894531 32.578125 15.039062 33.105469 C 15.261719 33.207031 15.480469 33.3125 15.523438 33.335938 C 15.683594 33.417969 16.53125 33.742188 16.910156 33.867188 C 17.644531 34.101562 18.585938 34.308594 19.449219 34.429688 C 20.148438 34.523438 22.363281 34.507812 23.082031 34.40625 C 24.085938 34.253906 25.148438 33.992188 26.046875 33.667969 C 27.542969 33.128906 29.269531 32.101562 30.441406 31.054688 C 30.625 30.890625 30.839844 30.695312 30.914062 30.628906 C 31.105469 30.460938 31.570312 29.964844 31.882812 29.59375 C 32.652344 28.683594 33.121094 27.976562 33.671875 26.917969 C 33.953125 26.375 34.050781 26.230469 34.140625 26.207031 C 34.285156 26.171875 36.046875 26.207031 36.082031 26.246094 C 36.140625 26.304688 35.640625 27.429688 35.214844 28.199219 C 34.902344 28.773438 34.171875 29.882812 33.828125 30.304688 C 33.691406 30.472656 33.507812 30.707031 33.410156 30.824219 C 32.964844 31.378906 31.972656 32.328125 30.988281 33.148438 C 30.289062 33.726562 28.804688 34.609375 27.675781 35.117188 C 25.292969 36.191406 22.175781 36.695312 19.640625 36.410156 Z M 19.640625 36.410156 " fill-opacity="1" fill-rule="nonzero"/><path fill="#0b549f" d="M 24.816406 25.238281 C 24.457031 25.167969 24.167969 25.054688 23.945312 24.898438 L 23.730469 24.746094 L 23.945312 24.496094 C 24.0625 24.355469 24.175781 24.257812 24.191406 24.285156 C 24.273438 24.398438 24.804688 24.601562 25.054688 24.621094 C 25.515625 24.652344 25.714844 24.554688 25.714844 24.296875 C 25.714844 24.066406 25.621094 24.015625 24.742188 23.753906 C 24.414062 23.660156 24.273438 23.589844 24.144531 23.460938 C 23.699219 23.035156 23.8125 22.277344 24.367188 21.953125 C 24.683594 21.761719 25.238281 21.738281 25.695312 21.886719 C 26 21.980469 26.332031 22.144531 26.332031 22.203125 C 26.332031 22.210938 26.25 22.335938 26.152344 22.472656 L 25.972656 22.722656 L 25.695312 22.585938 C 25.542969 22.511719 25.304688 22.433594 25.167969 22.421875 C 24.757812 22.378906 24.484375 22.59375 24.625 22.855469 C 24.699219 22.996094 24.785156 23.035156 25.410156 23.234375 C 26.09375 23.445312 26.304688 23.597656 26.402344 23.9375 C 26.464844 24.140625 26.46875 24.234375 26.425781 24.421875 C 26.316406 24.902344 26.050781 25.140625 25.5 25.238281 C 25.1875 25.296875 25.113281 25.296875 24.816406 25.238281 Z M 24.816406 25.238281 " fill-opacity="1" fill-rule="nonzero"/><path fill="#0b549f" d="M 28.414062 25.242188 C 27.6875 25.121094 27.117188 24.457031 27.058594 23.671875 C 26.984375 22.714844 27.613281 21.921875 28.5625 21.789062 C 29.105469 21.714844 29.800781 21.894531 30.074219 22.1875 L 30.183594 22.300781 L 29.949219 22.546875 L 29.714844 22.789062 L 29.507812 22.652344 C 29.132812 22.402344 28.707031 22.355469 28.367188 22.527344 C 28.050781 22.691406 27.800781 23.140625 27.800781 23.554688 C 27.800781 24.015625 28.160156 24.492188 28.5625 24.578125 C 28.914062 24.652344 29.25 24.589844 29.523438 24.40625 L 29.765625 24.246094 L 29.988281 24.476562 L 30.207031 24.710938 L 30.0625 24.835938 C 29.644531 25.207031 29.050781 25.351562 28.414062 25.242188 Z M 28.414062 25.242188 " fill-opacity="1" fill-rule="nonzero"/><path fill="#0b549f" d="M 31.976562 25.222656 C 31.398438 25.085938 31.023438 24.804688 30.78125 24.308594 C 30.640625 24.019531 30.625 23.949219 30.625 23.539062 C 30.625 23.152344 30.644531 23.054688 30.753906 22.820312 C 31.101562 22.078125 31.90625 21.667969 32.761719 21.800781 C 33.339844 21.886719 33.867188 22.269531 34.105469 22.773438 C 34.21875 23.011719 34.230469 23.105469 34.230469 23.515625 C 34.230469 23.9375 34.21875 24.023438 34.097656 24.269531 C 33.855469 24.78125 33.382812 25.132812 32.808594 25.238281 C 32.46875 25.304688 32.308594 25.300781 31.976562 25.222656 Z M 32.9375 24.503906 C 33.453125 24.242188 33.652344 23.527344 33.363281 22.996094 C 33.113281 22.535156 32.605469 22.324219 32.125 22.480469 C 31.695312 22.625 31.441406 22.921875 31.378906 23.371094 C 31.320312 23.792969 31.5625 24.3125 31.898438 24.496094 C 32.144531 24.632812 32.679688 24.632812 32.9375 24.503906 Z M 32.9375 24.503906 " fill-opacity="1" fill-rule="nonzero"/><path fill="#0b549f" d="M 1.929688 23.625 C 1.574219 22.730469 1.265625 21.964844 1.246094 21.917969 C 1.21875 21.84375 1.246094 21.832031 1.613281 21.847656 L 2.007812 21.863281 L 2.433594 22.988281 C 2.753906 23.828125 2.875 24.109375 2.925781 24.097656 C 2.96875 24.089844 3.046875 23.953125 3.109375 23.777344 C 3.167969 23.605469 3.355469 23.109375 3.527344 22.664062 L 3.828125 21.863281 L 4.214844 21.847656 C 4.425781 21.839844 4.597656 21.851562 4.59375 21.871094 C 4.59375 21.890625 4.289062 22.65625 3.917969 23.566406 L 3.246094 25.21875 L 2.582031 25.25 Z M 1.929688 23.625 " fill-opacity="1" fill-rule="nonzero"/><path fill="#0b549f" d="M 6.101562 25.210938 C 6.082031 25.195312 6.070312 24.890625 6.070312 24.53125 L 6.070312 23.875 L 5.679688 23.269531 C 5.464844 22.941406 5.175781 22.492188 5.039062 22.28125 C 4.902344 22.070312 4.789062 21.886719 4.789062 21.867188 C 4.789062 21.851562 4.96875 21.839844 5.1875 21.839844 L 5.585938 21.839844 L 5.75 22.089844 C 5.839844 22.222656 6.007812 22.5 6.121094 22.699219 C 6.390625 23.175781 6.46875 23.179688 6.71875 22.765625 C 6.820312 22.59375 6.984375 22.320312 7.089844 22.148438 L 7.273438 21.839844 L 8.109375 21.839844 L 7.863281 22.207031 C 7.730469 22.40625 7.582031 22.636719 7.535156 22.714844 C 7.488281 22.792969 7.296875 23.089844 7.113281 23.375 L 6.78125 23.894531 L 6.78125 25.242188 L 6.457031 25.242188 C 6.277344 25.242188 6.117188 25.230469 6.101562 25.210938 Z M 6.101562 25.210938 " fill-opacity="1" fill-rule="nonzero"/><path fill="#0b549f" d="M 7.886719 25.148438 C 7.894531 25.101562 8.222656 24.324219 8.613281 23.425781 L 9.316406 21.789062 L 9.992188 21.789062 L 10.714844 23.460938 C 11.109375 24.375 11.429688 25.152344 11.429688 25.1875 C 11.429688 25.222656 11.328125 25.242188 11.078125 25.242188 L 10.722656 25.242188 L 10.570312 24.871094 C 10.398438 24.433594 10.4375 24.453125 9.648438 24.445312 C 8.890625 24.429688 8.902344 24.425781 8.722656 24.871094 L 8.566406 25.238281 L 8.214844 25.238281 C 7.894531 25.238281 7.867188 25.230469 7.886719 25.148438 Z M 10.078125 23.777344 C 10.09375 23.753906 10.015625 23.515625 9.90625 23.257812 C 9.769531 22.921875 9.691406 22.785156 9.636719 22.792969 C 9.570312 22.808594 9.207031 23.625 9.199219 23.769531 C 9.199219 23.839844 10.03125 23.847656 10.078125 23.777344 Z M 10.078125 23.777344 " fill-opacity="1" fill-rule="nonzero"/><path fill="#0b549f" d="M 12.109375 25.210938 C 12.0625 25.191406 12.046875 24.808594 12.046875 23.511719 L 12.046875 21.839844 L 12.898438 21.839844 C 13.859375 21.839844 14.109375 21.890625 14.414062 22.15625 C 14.863281 22.535156 14.894531 23.324219 14.488281 23.777344 C 14.234375 24.054688 13.917969 24.164062 13.320312 24.195312 L 12.808594 24.21875 L 12.808594 24.699219 C 12.808594 25.101562 12.792969 25.191406 12.730469 25.214844 C 12.644531 25.25 12.195312 25.25 12.109375 25.210938 Z M 13.75 23.464844 C 14.109375 23.289062 14.140625 22.773438 13.804688 22.582031 C 13.703125 22.519531 13.558594 22.5 13.238281 22.5 L 12.808594 22.5 L 12.808594 23.539062 L 13.199219 23.539062 C 13.472656 23.539062 13.648438 23.515625 13.75 23.464844 Z M 13.75 23.464844 " fill-opacity="1" fill-rule="nonzero"/><path fill="#0b549f" d="M 14.753906 25.183594 C 14.753906 25.160156 15.074219 24.386719 15.472656 23.464844 L 16.191406 21.789062 L 16.871094 21.789062 L 17.101562 22.324219 C 17.226562 22.613281 17.371094 22.949219 17.417969 23.0625 C 17.917969 24.183594 18.308594 25.132812 18.289062 25.183594 C 18.265625 25.25 17.8125 25.265625 17.671875 25.214844 C 17.59375 25.183594 17.363281 24.722656 17.363281 24.601562 C 17.363281 24.566406 17.339844 24.523438 17.3125 24.503906 C 17.242188 24.46875 16 24.425781 15.863281 24.464844 C 15.789062 24.476562 15.714844 24.589844 15.601562 24.863281 L 15.441406 25.25 L 15.097656 25.234375 C 14.910156 25.230469 14.753906 25.207031 14.753906 25.183594 Z M 16.964844 23.757812 C 16.976562 23.726562 16.90625 23.5 16.808594 23.253906 C 16.554688 22.640625 16.496094 22.636719 16.257812 23.21875 C 16.003906 23.84375 15.996094 23.824219 16.507812 23.824219 C 16.828125 23.824219 16.945312 23.804688 16.964844 23.757812 Z M 16.964844 23.757812 " fill-opacity="1" fill-rule="nonzero"/><path fill="#0b549f" d="M 18.941406 25.214844 C 18.894531 25.195312 18.882812 24.808594 18.882812 23.511719 L 18.882812 21.839844 L 19.832031 21.839844 C 20.570312 21.839844 20.828125 21.851562 21.003906 21.914062 C 21.515625 22.085938 21.746094 22.40625 21.746094 22.949219 C 21.746094 23.195312 21.71875 23.332031 21.644531 23.476562 C 21.539062 23.683594 21.320312 23.890625 21.160156 23.941406 C 21.105469 23.957031 21.0625 24 21.0625 24.027344 C 21.0625 24.0625 21.234375 24.332031 21.4375 24.628906 C 21.648438 24.925781 21.808594 25.183594 21.800781 25.199219 C 21.785156 25.214844 21.609375 25.234375 21.402344 25.238281 L 21.027344 25.25 L 20.632812 24.675781 L 20.242188 24.105469 L 19.953125 24.117188 L 19.664062 24.132812 L 19.617188 25.21875 L 19.308594 25.230469 C 19.136719 25.234375 18.972656 25.222656 18.941406 25.214844 Z M 20.855469 23.332031 C 21.125 23.0625 21.0625 22.695312 20.722656 22.535156 C 20.589844 22.472656 20.042969 22.453125 19.703125 22.492188 C 19.65625 22.5 19.640625 22.632812 19.640625 22.996094 L 19.640625 23.492188 L 20.695312 23.492188 Z M 20.855469 23.332031 " fill-opacity="1" fill-rule="nonzero"/><path fill="#0b549f" d="M 35 25.214844 C 34.980469 25.195312 34.96875 24.429688 34.96875 23.507812 L 34.96875 21.839844 L 35.90625 21.839844 C 37.042969 21.839844 37.246094 21.878906 37.554688 22.1875 C 38.027344 22.660156 37.925781 23.503906 37.351562 23.886719 C 37.234375 23.960938 37.15625 24.046875 37.164062 24.078125 C 37.179688 24.109375 37.339844 24.355469 37.53125 24.628906 C 37.71875 24.902344 37.882812 25.148438 37.894531 25.175781 C 37.910156 25.214844 37.785156 25.234375 37.511719 25.238281 L 37.113281 25.25 L 36.722656 24.675781 L 36.328125 24.109375 L 35.730469 24.109375 L 35.71875 24.667969 L 35.703125 25.21875 L 35.371094 25.234375 C 35.1875 25.238281 35.019531 25.234375 35 25.214844 Z M 36.964844 23.3125 C 37.210938 23.039062 37.125 22.660156 36.789062 22.519531 C 36.628906 22.453125 36.03125 22.429688 35.835938 22.480469 C 35.730469 22.511719 35.726562 22.535156 35.726562 22.96875 C 35.726562 23.222656 35.742188 23.445312 35.761719 23.464844 C 35.785156 23.484375 36.03125 23.492188 36.3125 23.484375 C 36.824219 23.46875 36.828125 23.46875 36.964844 23.3125 Z M 36.964844 23.3125 " fill-opacity="1" fill-rule="nonzero"/><g clip-path="url(#fd045c1f2d)"><path fill="#0b549f" d="M 38.601562 25.207031 C 38.589844 25.183594 38.582031 24.421875 38.589844 23.511719 L 38.597656 21.863281 L 39.894531 21.847656 L 41.1875 21.839844 L 41.175781 22.132812 L 41.160156 22.429688 L 39.308594 22.476562 L 39.308594 23.1875 L 40.128906 23.199219 L 40.945312 23.210938 L 40.945312 23.824219 L 39.285156 23.824219 L 39.285156 24.582031 L 41.183594 24.582031 L 41.183594 25.242188 L 39.90625 25.242188 C 39.199219 25.242188 38.617188 25.222656 38.601562 25.207031 Z M 38.601562 25.207031 " fill-opacity="1" fill-rule="nonzero"/></g><path fill="#0b549f" d="M 20.695312 20.429688 C 20.433594 20.320312 20.148438 20.054688 20.011719 19.796875 C 19.855469 19.496094 19.859375 18.960938 20.019531 18.660156 C 20.085938 18.542969 20.488281 18.019531 20.921875 17.507812 C 21.859375 16.386719 22.40625 15.726562 22.628906 15.453125 C 22.777344 15.269531 23.128906 14.847656 24.636719 13.03125 C 24.871094 12.746094 25.0625 12.519531 25.074219 12.519531 C 25.097656 12.519531 25.113281 12.472656 23.773438 16.042969 C 23.167969 17.65625 22.621094 19.128906 22.554688 19.308594 C 22.3125 19.976562 22.195312 20.148438 21.835938 20.359375 C 21.554688 20.523438 21.003906 20.554688 20.695312 20.429688 Z M 21.5625 19.777344 C 21.847656 19.589844 21.941406 19.230469 21.789062 18.921875 C 21.679688 18.6875 21.476562 18.574219 21.164062 18.574219 C 20.929688 18.574219 20.894531 18.589844 20.726562 18.757812 C 20.554688 18.925781 20.542969 18.960938 20.542969 19.195312 C 20.542969 19.464844 20.660156 19.699219 20.847656 19.789062 C 21.007812 19.871094 21.433594 19.859375 21.5625 19.777344 Z M 21.5625 19.777344 " fill-opacity="1" fill-rule="nonzero"/><g clip-path="url(#bf076be87c)"><path fill="#f49306" d="M 35.214844 20.480469 C 35.1875 20.40625 35.152344 20.050781 35.136719 19.6875 C 35.105469 18.773438 34.933594 17.675781 34.707031 16.917969 C 34.664062 16.777344 34.597656 16.542969 34.558594 16.398438 C 34.472656 16.101562 34.398438 15.871094 34.257812 15.5 C 34.199219 15.359375 34.132812 15.179688 34.097656 15.097656 C 34.070312 15.023438 34.019531 14.929688 33.984375 14.894531 C 33.953125 14.863281 33.925781 14.792969 33.925781 14.738281 C 33.925781 14.691406 33.90625 14.648438 33.875 14.648438 C 33.851562 14.648438 33.828125 14.617188 33.828125 14.578125 C 33.828125 14.480469 33.574219 13.976562 33.351562 13.648438 C 33.253906 13.5 33.160156 13.328125 33.140625 13.273438 C 33.121094 13.214844 33.089844 13.144531 33.066406 13.117188 C 32.871094 12.886719 32.832031 12.828125 32.808594 12.753906 C 32.789062 12.699219 32.761719 12.664062 32.738281 12.664062 C 32.714844 12.664062 32.683594 12.625 32.671875 12.582031 C 32.65625 12.535156 32.589844 12.441406 32.527344 12.375 C 32.46875 12.308594 32.375 12.179688 32.335938 12.09375 C 32.292969 12.011719 32.203125 11.886719 32.140625 11.824219 C 32.078125 11.765625 32.027344 11.691406 32.027344 11.667969 C 32.027344 11.640625 31.996094 11.621094 31.960938 11.621094 C 31.925781 11.621094 31.867188 11.5625 31.835938 11.480469 C 31.800781 11.40625 31.746094 11.339844 31.710938 11.339844 C 31.675781 11.339844 31.644531 11.320312 31.644531 11.300781 C 31.644531 11.234375 31.476562 11.054688 31.414062 11.054688 C 31.386719 11.054688 31.363281 11.035156 31.363281 11.015625 C 31.363281 10.957031 30.996094 10.582031 30.933594 10.582031 C 30.910156 10.582031 30.886719 10.5625 30.886719 10.542969 C 30.886719 10.484375 30.714844 10.296875 30.660156 10.296875 C 30.628906 10.296875 30.59375 10.253906 30.578125 10.203125 C 30.5625 10.152344 30.519531 10.109375 30.492188 10.109375 C 30.460938 10.109375 30.402344 10.066406 30.363281 10.015625 C 30.328125 9.960938 30.28125 9.917969 30.261719 9.917969 C 30.242188 9.917969 30.132812 9.835938 30.027344 9.730469 C 29.917969 9.625 29.8125 9.542969 29.789062 9.542969 C 29.765625 9.542969 29.6875 9.480469 29.613281 9.398438 C 29.539062 9.324219 29.453125 9.257812 29.421875 9.257812 C 29.390625 9.257812 29.367188 9.238281 29.367188 9.210938 C 29.367188 9.1875 29.335938 9.164062 29.296875 9.164062 C 29.257812 9.164062 29.226562 9.144531 29.226562 9.117188 C 29.226562 9.09375 29.191406 9.070312 29.15625 9.070312 C 29.117188 9.070312 29.082031 9.050781 29.082031 9.019531 C 29.082031 8.996094 29.050781 8.972656 29.011719 8.972656 C 28.972656 8.972656 28.941406 8.953125 28.941406 8.925781 C 28.941406 8.902344 28.90625 8.878906 28.871094 8.878906 C 28.832031 8.878906 28.800781 8.859375 28.800781 8.832031 C 28.800781 8.808594 28.765625 8.785156 28.722656 8.785156 C 28.679688 8.785156 28.609375 8.746094 28.566406 8.703125 C 28.523438 8.65625 28.394531 8.566406 28.277344 8.503906 C 27.554688 8.121094 27.359375 8.027344 27.289062 8.027344 C 27.242188 8.027344 27.179688 7.984375 27.148438 7.933594 C 27.113281 7.882812 27.046875 7.839844 27 7.839844 C 26.949219 7.839844 26.890625 7.820312 26.878906 7.792969 C 26.863281 7.769531 26.804688 7.742188 26.753906 7.742188 C 26.707031 7.742188 26.664062 7.726562 26.664062 7.695312 C 26.664062 7.671875 26.621094 7.648438 26.570312 7.648438 C 26.515625 7.648438 26.402344 7.605469 26.308594 7.554688 C 26.210938 7.503906 26.089844 7.460938 26.023438 7.460938 C 25.960938 7.460938 25.894531 7.441406 25.878906 7.414062 C 25.867188 7.390625 25.800781 7.367188 25.734375 7.367188 C 25.671875 7.367188 25.621094 7.347656 25.621094 7.320312 C 25.621094 7.292969 25.558594 7.269531 25.480469 7.269531 C 25.402344 7.269531 25.324219 7.246094 25.3125 7.222656 C 25.296875 7.195312 25.230469 7.175781 25.164062 7.175781 C 25.101562 7.175781 25.050781 7.15625 25.050781 7.128906 C 25.050781 7.105469 24.964844 7.082031 24.859375 7.082031 C 24.757812 7.082031 24.671875 7.0625 24.671875 7.035156 C 24.671875 7.011719 24.574219 6.988281 24.457031 6.988281 C 24.339844 6.988281 24.242188 6.96875 24.242188 6.941406 C 24.242188 6.917969 24.148438 6.894531 24.035156 6.894531 C 23.917969 6.894531 23.808594 6.875 23.792969 6.84375 C 23.777344 6.820312 23.648438 6.796875 23.511719 6.796875 C 23.378906 6.796875 23.246094 6.777344 23.222656 6.753906 C 23.195312 6.730469 22.996094 6.699219 22.773438 6.683594 C 22.550781 6.664062 22.144531 6.636719 21.871094 6.617188 L 21.371094 6.585938 L 21.359375 5.601562 L 21.347656 4.613281 L 22.070312 4.640625 C 23.214844 4.6875 23.625 4.722656 23.625 4.769531 C 23.625 4.792969 23.746094 4.8125 23.886719 4.8125 C 24.03125 4.8125 24.148438 4.835938 24.148438 4.859375 C 24.148438 4.886719 24.242188 4.90625 24.355469 4.90625 C 24.476562 4.90625 24.585938 4.929688 24.597656 4.953125 C 24.613281 4.980469 24.699219 5 24.789062 5 C 24.878906 5 24.964844 5.023438 24.980469 5.046875 C 24.992188 5.078125 25.09375 5.09375 25.195312 5.09375 C 25.296875 5.09375 25.382812 5.121094 25.382812 5.144531 C 25.382812 5.171875 25.457031 5.191406 25.546875 5.191406 C 25.636719 5.191406 25.714844 5.214844 25.714844 5.238281 C 25.714844 5.265625 25.789062 5.285156 25.878906 5.285156 C 25.972656 5.285156 26.046875 5.308594 26.046875 5.332031 C 26.046875 5.359375 26.097656 5.378906 26.164062 5.378906 C 26.230469 5.378906 26.285156 5.402344 26.285156 5.425781 C 26.285156 5.453125 26.34375 5.472656 26.417969 5.472656 C 26.558594 5.472656 26.804688 5.570312 26.804688 5.628906 C 26.804688 5.648438 26.859375 5.664062 26.925781 5.664062 C 26.992188 5.664062 27.042969 5.6875 27.042969 5.710938 C 27.042969 5.738281 27.089844 5.757812 27.152344 5.757812 C 27.277344 5.757812 27.519531 5.855469 27.519531 5.914062 C 27.519531 5.933594 27.570312 5.945312 27.636719 5.945312 C 27.703125 5.945312 27.753906 5.96875 27.753906 5.996094 C 27.753906 6.023438 27.796875 6.042969 27.851562 6.042969 C 27.902344 6.042969 27.945312 6.066406 27.945312 6.089844 C 27.945312 6.117188 27.996094 6.136719 28.0625 6.136719 C 28.128906 6.136719 28.183594 6.160156 28.183594 6.183594 C 28.183594 6.210938 28.226562 6.230469 28.277344 6.230469 C 28.328125 6.230469 28.371094 6.253906 28.371094 6.277344 C 28.371094 6.304688 28.40625 6.324219 28.441406 6.324219 C 28.480469 6.324219 28.515625 6.347656 28.515625 6.371094 C 28.515625 6.402344 28.558594 6.417969 28.609375 6.417969 C 28.660156 6.417969 28.703125 6.445312 28.703125 6.46875 C 28.703125 6.496094 28.742188 6.515625 28.789062 6.515625 C 28.835938 6.515625 28.921875 6.558594 28.980469 6.609375 C 29.035156 6.660156 29.113281 6.703125 29.15625 6.703125 C 29.191406 6.703125 29.226562 6.726562 29.226562 6.75 C 29.226562 6.777344 29.253906 6.796875 29.292969 6.796875 C 29.332031 6.796875 29.367188 6.8125 29.378906 6.835938 C 29.386719 6.855469 29.492188 6.921875 29.621094 6.984375 C 29.742188 7.042969 29.84375 7.113281 29.84375 7.140625 C 29.84375 7.15625 29.875 7.175781 29.914062 7.175781 C 29.953125 7.175781 29.984375 7.199219 29.984375 7.222656 C 29.984375 7.253906 30.019531 7.269531 30.054688 7.269531 C 30.09375 7.269531 30.128906 7.292969 30.128906 7.320312 C 30.128906 7.347656 30.160156 7.367188 30.199219 7.367188 C 30.238281 7.367188 30.269531 7.390625 30.269531 7.414062 C 30.269531 7.441406 30.296875 7.460938 30.332031 7.460938 C 30.359375 7.460938 30.464844 7.527344 30.554688 7.601562 C 30.644531 7.679688 30.734375 7.742188 30.753906 7.742188 C 30.773438 7.742188 30.855469 7.808594 30.925781 7.886719 C 31 7.964844 31.082031 8.027344 31.105469 8.027344 C 31.128906 8.027344 31.179688 8.070312 31.21875 8.121094 C 31.257812 8.175781 31.308594 8.21875 31.332031 8.21875 C 31.355469 8.21875 31.4375 8.285156 31.511719 8.359375 C 31.585938 8.4375 31.65625 8.5 31.667969 8.5 C 31.679688 8.5 31.816406 8.628906 31.972656 8.785156 C 32.128906 8.941406 32.28125 9.070312 32.304688 9.070312 C 32.328125 9.070312 32.367188 9.109375 32.382812 9.164062 C 32.394531 9.214844 32.4375 9.257812 32.46875 9.257812 C 32.5 9.261719 32.601562 9.347656 32.691406 9.453125 C 32.78125 9.554688 32.945312 9.734375 33.058594 9.847656 C 33.167969 9.96875 33.257812 10.070312 33.257812 10.089844 C 33.257812 10.105469 33.316406 10.175781 33.390625 10.25 C 33.464844 10.320312 33.566406 10.441406 33.628906 10.515625 C 33.894531 10.855469 34.015625 11.003906 34.207031 11.238281 C 34.261719 11.300781 34.3125 11.390625 34.328125 11.4375 C 34.347656 11.488281 34.375 11.527344 34.394531 11.527344 C 34.414062 11.527344 34.46875 11.613281 34.515625 11.71875 C 34.566406 11.820312 34.617188 11.90625 34.632812 11.90625 C 34.648438 11.90625 34.703125 11.988281 34.753906 12.085938 C 34.804688 12.179688 34.863281 12.269531 34.878906 12.285156 C 34.890625 12.296875 34.957031 12.402344 35.015625 12.519531 C 35.070312 12.640625 35.136719 12.742188 35.15625 12.757812 C 35.207031 12.789062 35.796875 13.964844 35.882812 14.199219 C 35.921875 14.304688 36.003906 14.507812 36.054688 14.648438 C 36.25 15.140625 36.300781 15.289062 36.484375 15.839844 C 36.859375 16.964844 37.113281 18.417969 37.183594 19.824219 C 37.210938 20.429688 37.207031 20.484375 37.125 20.542969 C 37.058594 20.59375 36.824219 20.609375 36.148438 20.609375 L 35.261719 20.609375 Z M 35.214844 20.480469 " fill-opacity="1" fill-rule="nonzero"/></g><path fill="#b2d729" d="M 35.695312 20.574219 C 35.945312 20.566406 36.363281 20.566406 36.621094 20.574219 C 36.871094 20.582031 36.660156 20.589844 36.152344 20.589844 C 35.644531 20.589844 35.4375 20.582031 35.695312 20.574219 Z M 35.695312 20.574219 " fill-opacity="1" fill-rule="nonzero"/><g clip-path="url(#0186fbe694)"><path fill="#b2d729" d="M 11.042969 10.386719 C 10.941406 10.277344 10.863281 10.175781 10.863281 10.152344 C 10.863281 10.128906 10.839844 10.109375 10.808594 10.109375 C 10.746094 10.109375 10.578125 9.929688 10.578125 9.863281 C 10.578125 9.84375 10.554688 9.824219 10.523438 9.824219 C 10.464844 9.824219 10.101562 9.457031 10.101562 9.394531 C 10.101562 9.371094 10.070312 9.351562 10.03125 9.351562 C 9.921875 9.351562 9.945312 9.191406 10.078125 9.078125 C 10.144531 9.019531 10.199219 8.953125 10.199219 8.925781 C 10.199219 8.902344 10.230469 8.878906 10.269531 8.878906 C 10.304688 8.878906 10.363281 8.835938 10.398438 8.785156 C 10.429688 8.734375 10.476562 8.691406 10.496094 8.691406 C 10.519531 8.691406 10.601562 8.628906 10.671875 8.546875 C 10.742188 8.472656 10.820312 8.40625 10.832031 8.40625 C 10.855469 8.40625 11.039062 8.253906 11.265625 8.042969 C 11.328125 7.980469 11.402344 7.933594 11.429688 7.933594 C 11.453125 7.933594 11.480469 7.914062 11.480469 7.886719 C 11.480469 7.863281 11.507812 7.839844 11.539062 7.839844 C 11.574219 7.839844 11.628906 7.796875 11.667969 7.742188 C 11.707031 7.691406 11.753906 7.648438 11.777344 7.648438 C 11.800781 7.648438 11.84375 7.621094 11.882812 7.59375 C 12.023438 7.457031 12.148438 7.367188 12.191406 7.367188 C 12.21875 7.367188 12.238281 7.347656 12.238281 7.328125 C 12.238281 7.304688 12.3125 7.261719 12.402344 7.222656 C 12.492188 7.1875 12.570312 7.144531 12.570312 7.121094 C 12.570312 7.101562 12.601562 7.082031 12.640625 7.082031 C 12.679688 7.082031 12.710938 7.0625 12.710938 7.035156 C 12.710938 7.011719 12.746094 6.988281 12.785156 6.988281 C 12.820312 6.988281 12.855469 6.96875 12.855469 6.941406 C 12.855469 6.917969 12.886719 6.894531 12.925781 6.894531 C 12.964844 6.894531 12.996094 6.875 12.996094 6.84375 C 12.996094 6.820312 13.039062 6.796875 13.09375 6.796875 C 13.144531 6.796875 13.1875 6.777344 13.1875 6.761719 C 13.1875 6.738281 13.261719 6.695312 13.351562 6.65625 C 13.441406 6.617188 13.519531 6.574219 13.519531 6.5625 C 13.519531 6.546875 13.59375 6.503906 13.683594 6.46875 C 13.773438 6.429688 13.851562 6.386719 13.851562 6.363281 C 13.851562 6.34375 13.890625 6.324219 13.9375 6.324219 C 13.980469 6.324219 14.070312 6.28125 14.136719 6.230469 C 14.203125 6.179688 14.292969 6.136719 14.339844 6.136719 C 14.382812 6.136719 14.421875 6.117188 14.421875 6.089844 C 14.421875 6.066406 14.464844 6.042969 14.511719 6.042969 C 14.5625 6.042969 14.621094 6.023438 14.632812 5.996094 C 14.648438 5.96875 14.707031 5.945312 14.757812 5.945312 C 14.804688 5.945312 14.847656 5.929688 14.847656 5.898438 C 14.847656 5.875 14.898438 5.851562 14.964844 5.851562 C 15.03125 5.851562 15.085938 5.832031 15.085938 5.804688 C 15.085938 5.78125 15.117188 5.757812 15.15625 5.757812 C 15.195312 5.757812 15.269531 5.738281 15.324219 5.710938 C 15.375 5.6875 15.460938 5.644531 15.511719 5.617188 C 15.5625 5.59375 15.648438 5.570312 15.703125 5.570312 C 15.753906 5.570312 15.796875 5.550781 15.796875 5.519531 C 15.796875 5.496094 15.863281 5.472656 15.9375 5.472656 C 16.019531 5.472656 16.082031 5.453125 16.082031 5.425781 C 16.082031 5.402344 16.148438 5.378906 16.222656 5.378906 C 16.304688 5.378906 16.367188 5.359375 16.367188 5.335938 C 16.367188 5.300781 16.417969 5.285156 16.855469 5.210938 C 16.949219 5.195312 17.03125 5.160156 17.03125 5.136719 C 17.03125 5.113281 17.105469 5.09375 17.195312 5.09375 C 17.285156 5.09375 17.363281 5.078125 17.363281 5.046875 C 17.363281 5.023438 17.449219 5 17.550781 5 C 17.65625 5 17.742188 4.980469 17.742188 4.953125 C 17.742188 4.929688 17.835938 4.90625 17.957031 4.90625 C 18.074219 4.90625 18.167969 4.886719 18.167969 4.859375 C 18.167969 4.832031 18.3125 4.8125 18.5 4.8125 C 18.6875 4.8125 18.832031 4.792969 18.832031 4.769531 C 18.832031 4.71875 19.25 4.683594 20.296875 4.640625 L 21.015625 4.613281 L 21.007812 5.601562 L 20.992188 6.585938 L 20.496094 6.617188 C 19.371094 6.699219 19.238281 6.714844 19.195312 6.753906 C 19.164062 6.777344 19.023438 6.796875 18.871094 6.796875 C 18.71875 6.796875 18.597656 6.816406 18.597656 6.84375 C 18.597656 6.875 18.476562 6.894531 18.335938 6.894531 C 18.191406 6.894531 18.074219 6.917969 18.074219 6.941406 C 18.074219 6.96875 18.003906 6.988281 17.914062 6.988281 C 17.824219 6.988281 17.734375 7.011719 17.71875 7.035156 C 17.703125 7.0625 17.605469 7.082031 17.5 7.082031 C 17.402344 7.082031 17.316406 7.105469 17.316406 7.128906 C 17.316406 7.15625 17.261719 7.175781 17.195312 7.175781 C 17.128906 7.175781 17.078125 7.199219 17.078125 7.222656 C 17.078125 7.253906 17.015625 7.269531 16.9375 7.269531 C 16.859375 7.269531 16.792969 7.292969 16.792969 7.320312 C 16.792969 7.347656 16.730469 7.367188 16.65625 7.367188 C 16.574219 7.367188 16.5 7.390625 16.484375 7.414062 C 16.46875 7.441406 16.402344 7.460938 16.335938 7.460938 C 16.277344 7.460938 16.222656 7.484375 16.222656 7.507812 C 16.222656 7.535156 16.164062 7.554688 16.082031 7.554688 C 16.003906 7.554688 15.9375 7.578125 15.9375 7.601562 C 15.9375 7.628906 15.894531 7.648438 15.84375 7.648438 C 15.792969 7.648438 15.75 7.671875 15.75 7.695312 C 15.75 7.726562 15.695312 7.742188 15.628906 7.742188 C 15.5625 7.742188 15.511719 7.769531 15.511719 7.792969 C 15.511719 7.820312 15.46875 7.839844 15.417969 7.839844 C 15.363281 7.839844 15.324219 7.863281 15.324219 7.886719 C 15.324219 7.914062 15.289062 7.933594 15.25 7.933594 C 15.214844 7.933594 15.179688 7.957031 15.179688 7.980469 C 15.179688 8.007812 15.117188 8.027344 15.039062 8.027344 C 14.960938 8.027344 14.894531 8.050781 14.894531 8.074219 C 14.894531 8.105469 14.863281 8.121094 14.824219 8.121094 C 14.785156 8.121094 14.753906 8.144531 14.753906 8.167969 C 14.753906 8.199219 14.699219 8.21875 14.632812 8.21875 C 14.566406 8.21875 14.515625 8.242188 14.515625 8.265625 C 14.515625 8.292969 14.480469 8.3125 14.445312 8.3125 C 14.40625 8.3125 14.375 8.335938 14.375 8.359375 C 14.375 8.386719 14.332031 8.40625 14.277344 8.40625 C 14.226562 8.40625 14.183594 8.429688 14.183594 8.453125 C 14.183594 8.480469 14.148438 8.5 14.113281 8.5 C 14.074219 8.5 14.042969 8.523438 14.042969 8.546875 C 14.042969 8.578125 14 8.59375 13.949219 8.59375 C 13.898438 8.59375 13.839844 8.636719 13.828125 8.691406 C 13.808594 8.75 13.757812 8.785156 13.679688 8.785156 C 13.617188 8.785156 13.566406 8.808594 13.566406 8.832031 C 13.566406 8.859375 13.535156 8.878906 13.496094 8.878906 C 13.457031 8.878906 13.425781 8.902344 13.425781 8.925781 C 13.425781 8.953125 13.394531 8.972656 13.363281 8.972656 C 13.328125 8.972656 13.273438 9.015625 13.234375 9.070312 C 13.195312 9.121094 13.128906 9.164062 13.082031 9.164062 C 13.039062 9.164062 12.988281 9.207031 12.972656 9.257812 C 12.960938 9.308594 12.90625 9.351562 12.863281 9.351562 C 12.816406 9.351562 12.75 9.394531 12.710938 9.445312 C 12.675781 9.5 12.617188 9.542969 12.585938 9.542969 C 12.550781 9.542969 12.523438 9.566406 12.523438 9.589844 C 12.523438 9.617188 12.5 9.636719 12.46875 9.636719 C 12.441406 9.636719 12.355469 9.703125 12.285156 9.777344 C 12.214844 9.859375 12.136719 9.917969 12.121094 9.917969 C 12.101562 9.917969 11.980469 10.027344 11.851562 10.15625 C 11.726562 10.289062 11.605469 10.394531 11.585938 10.394531 C 11.5625 10.394531 11.515625 10.433594 11.480469 10.488281 C 11.375 10.628906 11.238281 10.597656 11.042969 10.386719 Z M 11.042969 10.386719 " fill-opacity="1" fill-rule="nonzero"/></g><path fill="#de2d1d" d="M 6.144531 20.523438 L 5.199219 20.515625 L 5.234375 19.765625 C 5.304688 18.175781 5.742188 16.074219 6.234375 14.933594 C 6.296875 14.792969 6.378906 14.582031 6.410156 14.472656 C 6.445312 14.359375 6.488281 14.269531 6.5 14.269531 C 6.519531 14.269531 6.546875 14.214844 6.566406 14.144531 C 6.605469 13.992188 7.140625 12.914062 7.230469 12.804688 C 7.261719 12.765625 7.351562 12.617188 7.425781 12.472656 C 7.496094 12.332031 7.617188 12.136719 7.6875 12.046875 C 7.753906 11.957031 7.847656 11.8125 7.894531 11.722656 C 7.9375 11.632812 7.996094 11.539062 8.019531 11.507812 C 8.078125 11.441406 8.433594 10.972656 8.558594 10.800781 C 8.613281 10.726562 8.699219 10.621094 8.75 10.5625 C 8.800781 10.5 8.917969 10.367188 8.996094 10.265625 C 9.082031 10.160156 9.265625 9.949219 9.410156 9.796875 C 9.640625 9.550781 9.675781 9.53125 9.75 9.59375 C 9.902344 9.714844 11.007812 10.832031 11.019531 10.871094 C 11.023438 10.890625 10.90625 11.039062 10.757812 11.207031 C 10.496094 11.496094 10.101562 11.976562 9.960938 12.191406 C 9.921875 12.246094 9.824219 12.382812 9.742188 12.492188 C 9.570312 12.71875 9.238281 13.230469 8.996094 13.632812 C 8.765625 14.023438 8.203125 15.207031 8.203125 15.308594 C 8.203125 15.335938 8.183594 15.398438 8.160156 15.445312 C 8.066406 15.617188 7.917969 15.972656 7.917969 16.027344 C 7.917969 16.078125 7.808594 16.4375 7.652344 16.894531 C 7.453125 17.480469 7.230469 18.949219 7.183594 19.964844 C 7.175781 20.25 7.144531 20.496094 7.128906 20.507812 C 7.101562 20.523438 6.664062 20.53125 6.144531 20.523438 Z M 6.144531 20.523438 " fill-opacity="1" fill-rule="nonzero"/></svg>