<?xml version="1.0" encoding="utf-8"?>
<!DOCTYPE svg PUBLIC "-//W3C//DTD SVG 1.0//EN" "http://www.w3.org/TR/2001/REC-SVG-20010904/DTD/svg10.dtd">
<svg version="1.0" xmlns="http://www.w3.org/2000/svg" width="864px" height="697px" viewBox="0 0 864 697" preserveAspectRatio="xMidYMid meet">
 <g fill="#0b549f">
  <path d="M400 683.1 c-32.7 -3.7 -56.8 -9.3 -85.5 -19.8 -13.6 -4.9 -36.1 -15.5 -50 -23.6 -8 -4.7 -27.3 -17.4 -32.5 -21.4 -29 -22.7 -45.2 -38.7 -66.8 -65.9 -14.6 -18.3 -34.2 -52.3 -43.6 -75.4 -3 -7.5 -3.2 -8.6 -1.8 -9.1 2.4 -0.8 35.3 -1.2 39.4 -0.4 3.1 0.6 3.8 1.5 10.2 14.3 13.8 27.3 35.2 56.5 57.1 77.6 22 21.3 52.4 42.7 76.5 53.8 4.7 2.2 9.3 4.4 10.2 4.9 3.4 1.7 21.3 8.6 29.3 11.2 15.4 5 35.3 9.4 53.5 11.9 14.7 2 61.4 1.7 76.5 -0.5 21.2 -3.2 43.6 -8.7 62.5 -15.6 31.5 -11.4 67.9 -33.1 92.6 -55.2 3.9 -3.5 8.4 -7.6 10 -9 4 -3.6 13.8 -14.1 20.4 -21.9 16.2 -19.3 26.1 -34.2 37.7 -56.6 5.9 -11.5 8 -14.5 9.9 -15 3 -0.8 40.1 0 40.9 0.8 1.2 1.2 -9.3 25 -18.3 41.3 -6.6 12.1 -22 35.6 -29.2 44.5 -2.9 3.6 -6.8 8.5 -8.8 11 -9.4 11.7 -30.3 31.8 -51.1 49.1 -14.7 12.3 -46 30.9 -69.8 41.7 -50.2 22.7 -115.9 33.3 -169.3 27.3z"/>
  <path d="M509.1 446.9 c-7.6 -1.5 -13.7 -3.9 -18.4 -7.2 l-4.5 -3.2 4.5 -5.3 c2.5 -3 4.9 -5 5.2 -4.5 1.7 2.4 12.9 6.7 18.2 7.1 9.7 0.7 13.9 -1.4 13.9 -6.8 0 -4.9 -2 -6 -20.5 -11.5 -6.9 -2 -9.9 -3.5 -12.6 -6.2 -9.4 -9 -7 -25 4.7 -31.9 6.7 -4 18.4 -4.5 28 -1.4 6.4 2 13.4 5.5 13.4 6.7 0 0.2 -1.7 2.8 -3.8 5.7 l-3.8 5.3 -5.8 -2.9 c-3.2 -1.6 -8.2 -3.2 -11.1 -3.5 -8.7 -0.9 -14.4 3.7 -11.5 9.2 1.6 3 3.4 3.8 16.6 8 14.4 4.5 18.8 7.7 20.9 14.9 1.3 4.3 1.4 6.3 0.5 10.2 -2.3 10.2 -7.9 15.2 -19.5 17.3 -6.6 1.2 -8.2 1.2 -14.4 0z"/>
  <path d="M584.9 447 c-15.3 -2.6 -27.3 -16.6 -28.6 -33.2 -1.5 -20.3 11.7 -37 31.7 -39.8 11.5 -1.6 26.1 2.2 31.9 8.4 l2.3 2.4 -5 5.2 -4.9 5.1 -4.4 -2.9 c-7.9 -5.3 -16.8 -6.3 -24 -2.6 -6.7 3.4 -11.9 12.9 -11.9 21.7 0 9.7 7.5 19.8 16 21.6 7.4 1.6 14.5 0.3 20.3 -3.6 l5.1 -3.4 4.7 4.9 4.6 4.9 -3.1 2.7 c-8.8 7.8 -21.3 10.9 -34.7 8.6z"/>
  <path d="M660 446.6 c-12.2 -2.9 -20.1 -8.9 -25.2 -19.4 -3 -6.1 -3.3 -7.6 -3.3 -16.2 0 -8.2 0.4 -10.3 2.7 -15.2 7.3 -15.7 24.3 -24.4 42.3 -21.6 12.2 1.8 23.3 9.9 28.3 20.6 2.4 5 2.7 7 2.7 15.7 0 8.9 -0.3 10.7 -2.8 15.9 -5.1 10.8 -15.1 18.3 -27.2 20.5 -7.2 1.4 -10.5 1.3 -17.5 -0.3z m20.2 -15.2 c10.9 -5.6 15.1 -20.7 9 -31.9 -5.3 -9.8 -16 -14.2 -26.1 -10.9 -9.1 3 -14.4 9.3 -15.7 18.8 -1.3 8.9 3.8 19.9 10.9 23.8 5.2 2.9 16.5 2.9 21.9 0.2z"/>
  <path d="M26.8 412.8 c-7.5 -18.9 -14 -35.1 -14.4 -36.1 -0.6 -1.6 0 -1.8 7.7 -1.5 l8.3 0.3 9 23.8 c6.7 17.8 9.3 23.7 10.4 23.5 0.9 -0.2 2.5 -3.1 3.8 -6.8 1.3 -3.6 5.2 -14.1 8.8 -23.5 l6.4 -17 8.1 -0.3 c4.5 -0.2 8.1 0.1 8 0.5 0 0.4 -6.4 16.6 -14.2 35.8 l-14.2 35 -7 0.3 -7 0.3 -13.7 -34.3z"/>
  <path d="M114.7 446.3 c-0.4 -0.3 -0.7 -6.8 -0.7 -14.4 l0 -13.8 -8.2 -12.8 c-4.5 -7 -10.6 -16.5 -13.5 -20.9 -2.9 -4.5 -5.3 -8.4 -5.3 -8.8 0 -0.3 3.8 -0.6 8.4 -0.6 l8.4 0 3.5 5.3 c1.9 2.8 5.4 8.7 7.8 12.9 5.7 10.1 7.3 10.2 12.6 1.4 2.1 -3.6 5.6 -9.4 7.8 -13 l3.9 -6.6 8.8 0 8.8 0 -5.2 7.8 c-2.8 4.2 -5.9 9.1 -6.9 10.7 -1 1.7 -5 8 -8.9 14 l-7 11 0 14.3 0 14.2 -6.8 0 c-3.8 0 -7.2 -0.3 -7.5 -0.7z"/>
  <path d="M152.3 445 c0.2 -1 7.1 -17.4 15.3 -36.4 l14.8 -34.6 7.1 0 7.2 0 15.2 35.3 c8.3 19.3 15.1 35.8 15.1 36.5 0 0.8 -2.2 1.2 -7.4 1.2 l-7.5 0 -3.2 -7.9 c-3.7 -9.2 -2.8 -8.8 -19.5 -9 -15.9 -0.3 -15.7 -0.4 -19.5 9 l-3.3 7.8 -7.4 0 c-6.7 0 -7.3 -0.2 -6.9 -1.9z m46.2 -29 c0.3 -0.5 -1.3 -5.5 -3.6 -11 -2.9 -7.1 -4.6 -10 -5.7 -9.8 -1.4 0.3 -9.1 17.6 -9.2 20.6 0 1.5 17.5 1.7 18.5 0.2z"/>
  <path d="M241.3 446.3 c-1 -0.4 -1.3 -8.5 -1.3 -35.9 l0 -35.4 17.9 0 c20.3 0 25.5 1.1 32 6.7 9.4 8 10.1 24.7 1.5 34.3 -5.3 5.9 -12 8.2 -24.6 8.8 l-10.8 0.5 0 10.2 c0 8.5 -0.3 10.4 -1.6 10.9 -1.8 0.7 -11.3 0.7 -13.1 -0.1z m34.6 -36.9 c7.5 -3.7 8.2 -14.6 1.1 -18.7 -2.1 -1.3 -5.2 -1.7 -11.9 -1.7 l-9.1 0 0 11 0 11 8.3 0 c5.7 0 9.4 -0.5 11.6 -1.6z"/>
  <path d="M297 445.7 c0 -0.5 6.8 -16.8 15.2 -36.3 l15.1 -35.4 7.2 0 7.1 0 4.9 11.3 c2.6 6.1 5.7 13.2 6.7 15.6 10.5 23.7 18.7 43.8 18.3 44.8 -0.5 1.4 -10 1.8 -13 0.7 -1.6 -0.7 -6.5 -10.4 -6.5 -13 0 -0.7 -0.5 -1.6 -1.1 -2 -1.4 -0.8 -27.6 -1.7 -30.5 -0.9 -1.6 0.3 -3.1 2.7 -5.5 8.5 l-3.4 8.1 -7.2 -0.3 c-4 -0.1 -7.3 -0.6 -7.3 -1.1z m46.6 -30.1 c0.3 -0.7 -1.2 -5.5 -3.3 -10.7 -5.3 -12.9 -6.6 -13 -11.6 -0.7 -5.3 13.2 -5.5 12.8 5.3 12.8 6.7 0 9.2 -0.4 9.6 -1.4z"/>
  <path d="M385.3 446.4 c-1 -0.4 -1.3 -8.6 -1.3 -36 l0 -35.4 20 0 c15.6 0 21 0.3 24.7 1.6 10.8 3.6 15.7 10.4 15.7 21.9 0 5.2 -0.6 8.1 -2.2 11.1 -2.2 4.4 -6.8 8.8 -10.2 9.9 -1.1 0.3 -2 1.2 -2 1.8 0 0.7 3.6 6.4 7.9 12.7 4.4 6.3 7.8 11.7 7.6 12.1 -0.3 0.3 -4 0.7 -8.4 0.8 l-7.9 0.2 -8.3 -12.1 -8.2 -12.1 -6.1 0.3 -6.1 0.3 -0.5 11.5 -0.5 11.5 -6.5 0.2 c-3.6 0.1 -7.1 -0.1 -7.7 -0.3z m40.3 -39.8 c5.7 -5.7 4.4 -13.5 -2.8 -16.9 -2.8 -1.3 -14.3 -1.7 -21.5 -0.9 -1 0.2 -1.3 3 -1.3 10.7 l0 10.5 11.1 0 11.1 0 3.4 -3.4z"/>
  <path d="M723.7 446.4 c-0.4 -0.4 -0.7 -16.6 -0.7 -36.1 l0 -35.3 19.8 0 c23.9 0 28.2 0.9 34.7 7.4 10 10 7.8 27.8 -4.3 35.9 -2.4 1.6 -4.1 3.4 -3.9 4.1 0.3 0.6 3.7 5.8 7.7 11.6 4 5.8 7.4 11 7.7 11.6 0.3 0.8 -2.3 1.2 -8.1 1.3 l-8.4 0.2 -8.2 -12.1 -8.3 -12 -6.3 0 -6.3 0 -0.3 11.8 -0.3 11.7 -7 0.3 c-3.9 0.1 -7.4 0 -7.8 -0.4z m41.4 -40.2 c5.2 -5.8 3.4 -13.8 -3.7 -16.8 -3.4 -1.4 -16 -1.9 -20.1 -0.8 -2.2 0.6 -2.3 1.1 -2.3 10.3 0 5.4 0.3 10.1 0.7 10.5 0.5 0.4 5.7 0.6 11.6 0.4 10.8 -0.3 10.9 -0.3 13.8 -3.6z"/>
  <path d="M799.6 446.2 c-0.3 -0.5 -0.4 -16.6 -0.3 -35.8 l0.2 -34.9 27.3 -0.3 27.3 -0.2 -0.3 6.2 -0.3 6.3 -19.5 0.5 -19.5 0.5 0 7.5 0 7.5 17.3 0.3 17.2 0.2 0 6.5 0 6.5 -17.5 0 -17.5 0 0 8 0 8 20 0 20 0 0 7 0 7 -26.9 0 c-14.9 0 -27.2 -0.4 -27.5 -0.8z"/>
  <path d="M422.2 345.2 c-5.5 -2.3 -11.5 -7.9 -14.4 -13.4 -3.3 -6.3 -3.2 -17.6 0.2 -24 1.4 -2.5 9.9 -13.5 19 -24.4 19.8 -23.7 31.3 -37.6 36 -43.4 3.1 -3.9 10.5 -12.8 42.3 -51.2 4.9 -6 9 -10.8 9.2 -10.8 0.5 0 0.8 -1 -27.4 74.5 -12.8 34.1 -24.3 65.2 -25.7 69 -5.1 14.1 -7.6 17.8 -15.1 22.2 -6 3.5 -17.6 4.2 -24.1 1.5z m18.3 -13.8 c6 -3.9 8 -11.5 4.8 -18.1 -2.3 -4.9 -6.6 -7.3 -13.2 -7.3 -4.9 0 -5.7 0.3 -9.2 3.9 -3.6 3.5 -3.9 4.3 -3.9 9.2 0 5.7 2.5 10.7 6.4 12.6 3.4 1.7 12.4 1.5 15.1 -0.3z"/>
 </g>
 <g fill="#f49306">
  <path d="M728.2 346.3 c-0.6 -1.6 -1.3 -9.1 -1.6 -16.8 -0.7 -19.3 -4.3 -42.5 -9.1 -58.5 -0.9 -3 -2.3 -8 -3.1 -11 -1.8 -6.3 -3.4 -11.2 -6.4 -19 -1.2 -3 -2.6 -6.8 -3.3 -8.5 -0.6 -1.6 -1.7 -3.6 -2.4 -4.3 -0.7 -0.7 -1.3 -2.2 -1.3 -3.3 0 -1 -0.4 -1.9 -1 -1.9 -0.5 0 -1 -0.7 -1 -1.5 0 -2.1 -5.4 -12.7 -10.1 -19.7 -2 -3.1 -4 -6.7 -4.4 -7.9 -0.4 -1.2 -1.1 -2.7 -1.6 -3.3 -4.1 -4.9 -4.9 -6.1 -5.4 -7.7 -0.4 -1.1 -1 -1.9 -1.5 -1.9 -0.5 0 -1.1 -0.8 -1.4 -1.7 -0.3 -1 -1.7 -3 -3 -4.4 -1.3 -1.4 -3.2 -4.1 -4.1 -5.9 -0.9 -1.8 -2.8 -4.4 -4.1 -5.7 -1.3 -1.3 -2.4 -2.8 -2.4 -3.3 0 -0.6 -0.6 -1 -1.4 -1 -0.7 0 -1.9 -1.3 -2.6 -3 -0.7 -1.6 -1.9 -3 -2.6 -3 -0.8 0 -1.4 -0.4 -1.4 -0.8 0 -1.4 -3.6 -5.2 -4.9 -5.2 -0.6 0 -1.1 -0.4 -1.1 -0.8 0 -1.3 -7.7 -9.2 -9 -9.2 -0.5 0 -1 -0.4 -1 -0.8 0 -1.3 -3.6 -5.2 -4.8 -5.2 -0.6 0 -1.4 -0.9 -1.7 -2 -0.3 -1.1 -1.2 -2 -1.8 -2 -0.7 0 -1.9 -0.9 -2.7 -2 -0.8 -1.1 -1.8 -2 -2.2 -2 -0.4 0 -2.7 -1.8 -4.9 -4 -2.3 -2.2 -4.5 -4 -5 -4 -0.5 0 -2.2 -1.3 -3.7 -3 -1.6 -1.6 -3.4 -3 -4.1 -3 -0.6 0 -1.1 -0.4 -1.1 -1 0 -0.5 -0.7 -1 -1.5 -1 -0.8 0 -1.5 -0.4 -1.5 -1 0 -0.5 -0.7 -1 -1.5 -1 -0.8 0 -1.5 -0.4 -1.5 -1 0 -0.5 -0.7 -1 -1.5 -1 -0.8 0 -1.5 -0.4 -1.5 -1 0 -0.5 -0.7 -1 -1.5 -1 -0.8 0 -1.5 -0.4 -1.5 -1 0 -0.5 -0.7 -1 -1.6 -1 -0.9 0 -2.4 -0.8 -3.3 -1.7 -0.9 -1 -3.6 -2.9 -6.1 -4.2 -15.2 -8.1 -19.3 -10.1 -20.8 -10.1 -1 0 -2.3 -0.9 -3 -2 -0.7 -1.1 -2.1 -2 -3.1 -2 -1.1 0 -2.3 -0.4 -2.6 -1 -0.3 -0.5 -1.5 -1 -2.6 -1 -1 0 -1.9 -0.4 -1.9 -1 0 -0.5 -0.9 -1 -2 -1 -1.1 0 -3.5 -0.9 -5.5 -2 -2 -1.1 -4.6 -2 -6 -2 -1.3 0 -2.7 -0.4 -3 -1 -0.3 -0.5 -1.7 -1 -3.1 -1 -1.3 0 -2.4 -0.4 -2.4 -1 0 -0.5 -1.3 -1 -2.9 -1 -1.7 0 -3.3 -0.5 -3.6 -1 -0.3 -0.6 -1.7 -1 -3.1 -1 -1.3 0 -2.4 -0.4 -2.4 -1 0 -0.5 -1.8 -1 -4 -1 -2.2 0 -4 -0.4 -4 -1 0 -0.5 -2 -1 -4.5 -1 -2.5 0 -4.5 -0.4 -4.5 -1 0 -0.5 -2 -1 -4.4 -1 -2.5 0 -4.8 -0.4 -5.1 -1 -0.3 -0.5 -3 -1 -5.9 -1 -2.8 0 -5.6 -0.4 -6.1 -0.9 -0.6 -0.5 -4.8 -1.2 -9.5 -1.5 -4.7 -0.4 -13.2 -1 -19 -1.4 l-10.5 -0.7 -0.3 -20.8 -0.2 -20.9 15.2 0.6 c24.1 1 32.8 1.7 32.8 2.7 0 0.5 2.5 0.9 5.5 0.9 3 0 5.5 0.5 5.5 1 0 0.6 2 1 4.4 1 2.5 0 4.8 0.5 5.1 1 0.3 0.6 2.1 1 4 1 1.9 0 3.7 0.5 4 1 0.3 0.6 2.4 1 4.6 1 2.1 0 3.9 0.5 3.9 1 0 0.6 1.6 1 3.5 1 1.9 0 3.5 0.5 3.5 1 0 0.6 1.6 1 3.5 1 1.9 0 3.5 0.5 3.5 1 0 0.6 1.1 1 2.5 1 1.4 0 2.5 0.5 2.5 1 0 0.6 1.3 1 2.8 1 3 0 8.2 2 8.2 3.3 0 0.4 1.1 0.7 2.5 0.7 1.4 0 2.5 0.5 2.5 1 0 0.6 1 1 2.3 1 2.6 0 7.7 2.1 7.7 3.3 0 0.4 1.1 0.7 2.5 0.7 1.4 0 2.5 0.5 2.5 1 0 0.6 0.9 1 2 1 1.1 0 2 0.5 2 1 0 0.6 1.1 1 2.5 1 1.4 0 2.5 0.5 2.5 1 0 0.6 0.9 1 2 1 1.1 0 2 0.5 2 1 0 0.6 0.7 1 1.5 1 0.8 0 1.5 0.5 1.5 1 0 0.6 0.9 1 2 1 1.1 0 2 0.5 2 1 0 0.6 0.8 1 1.8 1 1 0 2.8 0.9 4 2 1.2 1.1 2.8 2 3.7 2 0.8 0 1.5 0.5 1.5 1 0 0.6 0.6 1 1.4 1 0.8 0 1.6 0.3 1.8 0.8 0.2 0.4 2.4 1.8 5.1 3.1 2.6 1.3 4.7 2.8 4.7 3.3 0 0.4 0.7 0.8 1.5 0.8 0.8 0 1.5 0.5 1.5 1 0 0.6 0.7 1 1.5 1 0.8 0 1.5 0.5 1.5 1 0 0.6 0.7 1 1.5 1 0.8 0 1.5 0.5 1.5 1 0 0.6 0.6 1 1.3 1 0.6 0 2.8 1.4 4.7 3 1.9 1.6 3.8 3 4.2 3 0.4 0 2.1 1.4 3.6 3 1.6 1.7 3.3 3 3.8 3 0.5 0 1.6 0.9 2.4 2 0.8 1.1 1.9 2 2.4 2 0.5 0 2.2 1.4 3.8 3 1.5 1.7 3 3 3.3 3 0.2 0 3.1 2.7 6.4 6 3.3 3.3 6.5 6 7 6 0.5 0 1.3 0.9 1.6 2 0.3 1.1 1.2 2 1.8 2 0.7 0.1 2.8 1.9 4.7 4.1 1.9 2.2 5.4 6 7.8 8.4 2.3 2.5 4.2 4.7 4.2 5.1 0 0.3 1.2 1.8 2.8 3.4 1.5 1.5 3.7 4 5 5.6 5.6 7.2 8.1 10.3 12.2 15.3 1.1 1.3 2.2 3.2 2.5 4.2 0.4 1.1 1 1.9 1.4 1.9 0.4 0 1.6 1.8 2.6 4 1 2.2 2.1 4 2.4 4 0.4 0 1.5 1.7 2.6 3.8 1.1 2 2.3 3.9 2.6 4.2 0.3 0.3 1.7 2.5 2.9 5 1.2 2.5 2.6 4.7 3 5 1 0.7 13.5 25.5 15.3 30.5 0.8 2.2 2.5 6.5 3.6 9.5 4.1 10.4 5.2 13.5 9.1 25.2 7.9 23.8 13.2 54.5 14.7 84.2 0.6 12.8 0.5 14 -1.2 15.2 -1.4 1.1 -6.4 1.4 -20.6 1.4 l-18.7 0 -1 -2.7z"/>
 </g>
 <g fill="#b2d729">
  <path d="M738.3 348.3 c5.3 -0.2 14.1 -0.2 19.5 0 5.3 0.1 0.9 0.3 -9.8 0.3 -10.7 0 -15.1 -0.2 -9.7 -0.3z"/>
  <path d="M218.8 132.9 c-2.1 -2.3 -3.8 -4.5 -3.8 -5 0 -0.5 -0.5 -0.9 -1.1 -0.9 -1.3 0 -4.9 -3.8 -4.9 -5.2 0 -0.4 -0.5 -0.8 -1.1 -0.8 -1.3 0 -8.9 -7.8 -8.9 -9.1 0 -0.5 -0.7 -0.9 -1.5 -0.9 -2.3 0 -1.8 -3.4 1 -5.8 1.4 -1.2 2.5 -2.6 2.5 -3.2 0 -0.5 0.7 -1 1.5 -1 0.8 0 2 -0.9 2.7 -2 0.7 -1.1 1.7 -2 2.1 -2 0.5 0 2.2 -1.3 3.7 -3 1.5 -1.6 3.1 -3 3.4 -3 0.5 0 4.3 -3.2 9.1 -7.7 1.3 -1.3 2.9 -2.3 3.5 -2.3 0.5 0 1 -0.4 1 -1 0 -0.5 0.6 -1 1.3 -1 0.7 0 1.9 -0.9 2.7 -2 0.8 -1.1 1.8 -2 2.3 -2 0.5 0 1.4 -0.6 2.2 -1.2 3 -2.9 5.6 -4.8 6.5 -4.8 0.6 0 1 -0.4 1 -0.8 0 -0.5 1.6 -1.4 3.5 -2.2 1.9 -0.8 3.5 -1.7 3.5 -2.2 0 -0.4 0.7 -0.8 1.5 -0.8 0.8 0 1.5 -0.4 1.5 -1 0 -0.5 0.7 -1 1.5 -1 0.8 0 1.5 -0.4 1.5 -1 0 -0.5 0.7 -1 1.5 -1 0.8 0 1.5 -0.4 1.5 -1 0 -0.5 0.9 -1 2 -1 1.1 0 2 -0.4 2 -0.8 0 -0.5 1.6 -1.4 3.5 -2.2 1.9 -0.8 3.5 -1.7 3.5 -2 0 -0.3 1.6 -1.2 3.5 -2 1.9 -0.8 3.5 -1.7 3.5 -2.2 0 -0.4 0.8 -0.8 1.8 -0.8 0.9 0 2.8 -0.9 4.2 -2 1.4 -1.1 3.3 -2 4.3 -2 0.9 0 1.7 -0.4 1.7 -1 0 -0.5 0.9 -1 1.9 -1 1.1 0 2.3 -0.4 2.6 -1 0.3 -0.5 1.5 -1 2.6 -1 1 0 1.9 -0.4 1.9 -1 0 -0.5 1.1 -1 2.5 -1 1.4 0 2.5 -0.4 2.5 -1 0 -0.5 0.7 -1 1.5 -1 0.8 0 2.4 -0.4 3.5 -1 1.1 -0.5 2.9 -1.4 4 -2 1.1 -0.5 2.9 -1 4 -1 1.1 0 2 -0.4 2 -1 0 -0.5 1.4 -1 3 -1 1.7 0 3 -0.4 3 -1 0 -0.5 1.4 -1 3 -1 1.7 0 3 -0.4 3 -0.9 0 -0.8 1.1 -1.1 10.3 -2.7 2 -0.3 3.7 -1 3.7 -1.5 0 -0.5 1.6 -0.9 3.5 -0.9 1.9 0 3.5 -0.4 3.5 -1 0 -0.5 1.8 -1 4 -1 2.2 0 4 -0.4 4 -1 0 -0.5 2 -1 4.5 -1 2.5 0 4.5 -0.4 4.5 -1 0 -0.6 3 -1 7 -1 3.9 0 7 -0.4 7 -0.9 0 -1.1 8.8 -1.8 30.8 -2.7 l15.2 -0.6 -0.2 20.9 -0.3 20.8 -10.5 0.7 c-23.7 1.7 -26.5 2 -27.4 2.9 -0.6 0.5 -3.6 0.9 -6.8 0.9 -3.2 0 -5.8 0.4 -5.8 1 0 0.6 -2.5 1 -5.5 1 -3 0 -5.5 0.5 -5.5 1 0 0.6 -1.5 1 -3.4 1 -1.9 0 -3.8 0.5 -4.1 1 -0.3 0.6 -2.4 1 -4.6 1 -2.1 0 -3.9 0.5 -3.9 1 0 0.6 -1.1 1 -2.5 1 -1.4 0 -2.5 0.5 -2.5 1 0 0.6 -1.3 1 -3 1 -1.6 0 -3 0.5 -3 1 0 0.6 -1.3 1 -2.9 1 -1.7 0 -3.3 0.5 -3.6 1 -0.3 0.6 -1.7 1 -3.1 1 -1.3 0 -2.4 0.5 -2.4 1 0 0.6 -1.3 1 -3 1 -1.6 0 -3 0.5 -3 1 0 0.6 -0.9 1 -2 1 -1.1 0 -2 0.5 -2 1 0 0.6 -1.1 1 -2.5 1 -1.4 0 -2.5 0.5 -2.5 1 0 0.6 -0.9 1 -2 1 -1.1 0 -2 0.5 -2 1 0 0.6 -0.7 1 -1.5 1 -0.8 0 -1.5 0.5 -1.5 1 0 0.6 -1.3 1 -3 1 -1.6 0 -3 0.5 -3 1 0 0.6 -0.7 1 -1.5 1 -0.8 0 -1.5 0.5 -1.5 1 0 0.6 -1.1 1 -2.5 1 -1.4 0 -2.5 0.5 -2.5 1 0 0.6 -0.7 1 -1.5 1 -0.8 0 -1.5 0.5 -1.5 1 0 0.6 -0.9 1 -2 1 -1.1 0 -2 0.5 -2 1 0 0.6 -0.7 1 -1.5 1 -0.8 0 -1.5 0.5 -1.5 1 0 0.6 -0.9 1 -1.9 1 -1.1 0 -2.3 0.9 -2.6 2 -0.4 1.3 -1.5 2 -3.1 2 -1.3 0 -2.4 0.5 -2.4 1 0 0.6 -0.7 1 -1.5 1 -0.8 0 -1.5 0.5 -1.5 1 0 0.6 -0.6 1 -1.3 1 -0.7 0 -1.9 0.9 -2.7 2 -0.8 1.1 -2.2 2 -3.2 2 -0.9 0 -2 0.9 -2.3 2 -0.3 1.1 -1.4 2 -2.3 2 -1 0 -2.4 0.9 -3.2 2 -0.8 1.1 -2 2 -2.7 2 -0.7 0 -1.3 0.5 -1.3 1 0 0.6 -0.5 1 -1.1 1 -0.6 0 -2.4 1.4 -3.9 3 -1.5 1.7 -3.1 3 -3.5 3 -0.4 0 -2.9 2.3 -5.6 5 -2.7 2.8 -5.2 5 -5.6 5 -0.5 0 -1.5 0.9 -2.3 2 -2.2 3 -5.1 2.3 -9.2 -2.1z"/>
 </g>
 <g fill="#de2d1d">
  <path d="M115.6 347.2 l-19.9 -0.2 0.7 -15.8 c1.5 -33.6 10.7 -78.1 21.1 -102.2 1.3 -3 3 -7.4 3.7 -9.7 0.7 -2.4 1.6 -4.3 1.9 -4.3 0.4 0 1 -1.2 1.4 -2.7 0.8 -3.2 12.1 -26 14 -28.3 0.6 -0.8 2.5 -4 4.1 -7 1.5 -3 4 -7.1 5.5 -9 1.4 -1.9 3.4 -5 4.4 -6.9 0.9 -1.9 2.1 -3.9 2.6 -4.5 1.2 -1.4 8.7 -11.3 11.4 -15 1.1 -1.5 2.9 -3.8 4 -5 1.1 -1.3 3.5 -4.1 5.2 -6.3 1.8 -2.2 5.7 -6.7 8.7 -9.9 4.9 -5.2 5.6 -5.6 7.2 -4.3 3.2 2.6 26.5 26.2 26.7 27 0.1 0.4 -2.4 3.6 -5.5 7.1 -5.5 6.1 -13.8 16.3 -16.8 20.8 -0.8 1.2 -2.9 4.1 -4.6 6.4 -3.6 4.8 -10.6 15.6 -15.7 24.1 -4.9 8.3 -16.7 33.3 -16.7 35.4 0 0.6 -0.4 1.9 -0.9 2.9 -2 3.7 -5.1 11.2 -5.1 12.3 0 1.1 -2.3 8.7 -5.6 18.4 -4.2 12.4 -8.9 43.4 -9.9 64.9 -0.2 6 -0.8 11.2 -1.2 11.5 -0.5 0.3 -9.8 0.5 -20.7 0.3z"/>
 </g>
</svg>